<?xml version="1.0" encoding="UTF-8"?>
<svg width="150px" height="150px" viewBox="0 0 150 150" version="1.1" xmlns="http://www.w3.org/2000/svg" xmlns:xlink="http://www.w3.org/1999/xlink">
    <!-- Generator: Sketch 48.2 (47327) - http://www.bohemiancoding.com/sketch -->
    <title>Bonds/Icons/Coaching/Build/Default</title>
    <desc>Created with Sketch.</desc>
    <defs>
        <circle id="path-1" cx="75" cy="75" r="75"></circle>
        <path d="M23.9165,36.7741 L26.9455,36.7741 L26.9455,28.6911 C26.9455,27.7851 27.1165,26.8641 27.485,25.9736 C27.853,25.0841 28.3835,24.3101 29.025,23.6696 L39.498,13.1956 C39.5215,13.1756 39.5445,13.1551 39.568,13.1331 C36.141,5.6466 28.589,0.4426 19.8165,0.4426 C11.0445,0.4426 3.4925,5.6466 0.0655,13.1331 C0.0885,13.1551 0.1135,13.1756 0.135,13.1956 L10.6085,23.6696 C11.25,24.3101 11.7795,25.0841 12.1485,25.9736 C12.5165,26.8641 12.6885,27.7851 12.6885,28.6911 L12.6885,36.7741 L15.7155,36.7741 L15.7155,43.4826 C17.0435,43.7366 18.4135,43.8746 19.8165,43.8746 C21.219,43.8746 22.5895,43.7366 23.9165,43.4826 L23.9165,36.7741 Z" id="path-3"></path>
        <path d="M27.9165,64.3745 L27.9165,57.274 L47.4475,57.274 L47.4475,64.3745 L27.9165,64.3745 Z M0.1865,64.3745 L0.1865,57.274 L19.7155,57.274 L19.7155,64.3745 L0.1865,64.3745 Z M19.96045,15.13785 C16.96295,18.13335 12.10595,18.13035 9.11295,15.13835 C7.86695,13.89185 7.19895,12.31785 6.93095,10.70985 L5.20495,0.38135 L15.53145,2.10885 C17.13795,2.37785 18.71095,3.04285 19.95995,4.29085 C22.95245,7.28385 22.95345,12.14435 19.96045,15.13785 Z M27.6714,15.13785 C24.6799,12.14435 24.6804,7.28385 27.6724,4.29085 C28.9229,3.04285 30.4954,2.37785 32.1014,2.10885 L42.4284,0.38135 L40.7019,10.70985 C40.4334,12.31785 39.7659,13.89185 38.5184,15.13835 C35.5284,18.13035 30.6699,18.13335 27.6714,15.13785 Z" id="path-5"></path>
        <path d="M32.56615,11.0132972 L23.6517427,2.09840965 L25.4195573,0.33069035 L33.8161976,8.72778305 L42.2137903,0.3306427 L43.9815096,2.0984573 L35.06615,11.0133367 L35.06615,34.15885 L32.56615,34.15885 L32.56615,11.0132972 Z M27.9387,47.5242 L30.96535,47.5242 L30.96535,55.8747 L28.46535,55.8747 L28.46535,50.0242 L11.43635,50.0242 L11.43635,55.8747 L8.93635,55.8747 L8.93635,47.5242 L11.8807968,47.5242 C11.7737252,46.7230634 11.562856,45.9353907 11.2477053,45.1751535 C10.770719,44.0226165 10.0793157,42.9945325 9.2097594,42.1249765 L1.47369867,34.3879135 C1.03001717,33.9456163 0.676171865,33.4197225 0.431623477,32.8301626 C0.1880075,32.2429687 0.0662,31.6207582 0.0662,30.99315 L0.0662,10.80415 C0.0662,9.54069585 0.56038518,8.32251335 1.47199806,7.4095851 C2.38369005,6.4972358 3.60233022,6.00365 4.8672,6.00365 C6.13173545,6.00365 7.3508161,6.497342 8.2627205,7.409904 C9.17390885,8.3224072 9.6677,9.54049665 9.6677,10.80415 L9.6677,20.93915 L7.1677,20.93915 L7.1677,10.80415 C7.1677,10.1965534 6.93215215,9.61550135 6.49399805,9.1767149 C6.0565502,8.73895165 5.47551655,8.50365 4.8672,8.50365 C4.25859306,8.50365 3.6779895,8.73881185 3.24072051,9.176396 C2.80197691,9.6157727 2.5662,10.1969705 2.5662,10.80415 L2.5662,30.99315 C2.5662,31.2947413 2.62425049,31.5912717 2.74081061,31.8722196 C2.85854191,32.1560475 3.02686021,32.4062064 3.24014059,32.6188237 L10.9775835,40.3572665 C12.077551,41.4572341 12.9540285,42.7605145 13.557415,44.2184715 C13.9994409,45.284769 14.2796327,46.3955725 14.3982994,47.52415 L25.4387,47.52415 L25.4387,40.69115 C25.4387,39.9265096 25.2907135,39.1703654 24.9943362,38.453175 C24.6954216,37.7335959 24.2647393,37.0930353 23.7247954,36.5535124 L13.2516601,26.079877 C12.8222271,25.6507776 12.2448433,25.40715 11.6242,25.40715 C11.0031351,25.40715 10.4259036,25.6507133 9.9974272,26.0791896 C9.56781975,26.5091314 9.3237,27.0868446 9.32369985,27.7082881 C9.32338425,28.326477 9.56765305,28.9040018 9.9970549,29.333738 L17.7264274,37.0626107 C18.1555145,37.492032 18.7335172,37.73665 19.3532,37.73665 L19.3532,40.23665 C18.0633082,40.23665 16.8513002,39.7237129 15.9583451,38.8300621 L8.2289728,31.1011896 C7.33538345,30.2069049 6.8230424,28.9955766 6.8237,27.70765 C6.8237,26.4174622 7.33550065,25.2062779 8.2293165,24.3117665 C9.12285765,23.4182254 10.3340778,22.90715 11.6242,22.90715 C12.9137438,22.90715 14.1247626,23.4181405 15.0191045,24.3117876 L25.4922385,34.7854218 C26.2623882,35.5549706 26.877689,36.4701173 27.3039422,37.4962451 C27.7271988,38.5204571 27.9387,39.6011331 27.9387,40.69115 L27.9387,47.5242 Z M55.7520977,47.5242 L58.6975,47.5242 L58.6975,55.8747 L56.1975,55.8747 L56.1975,50.0242 L39.1665,50.0242 L39.1665,55.8747 L36.6665,55.8747 L36.6665,47.5242 L39.6953,47.5242 L39.6953,40.69115 C39.6953,39.6005812 39.9064816,38.5200206 40.3297473,37.4957867 C40.7533106,36.4719837 41.3694551,35.5560249 42.1408743,34.7858087 L52.6146035,24.31108 C53.509017,23.4180555 54.7198345,22.90715 56.0088,22.90715 C57.2995005,22.90715 58.510922,23.4183104 59.4036835,24.3117665 C60.297627,25.2057103 60.8093,26.4170137 60.8093,27.70765 C60.8093,28.9966606 60.2973795,30.2078375 59.4036835,31.1015335 L51.6751835,38.8300335 C50.7812965,39.7239205 49.5699573,40.23665 48.2803,40.23665 L48.2803,37.73665 C48.8998555,37.73665 49.4775615,37.4921215 49.9074165,37.0622665 L57.6359165,29.3337665 C58.065263,28.9044201 58.3093,28.3270415 58.3093,27.70765 C58.3093,27.0864366 58.0653815,26.5089983 57.635573,26.0791896 C57.2073655,25.650649 56.6302865,25.40715 56.0088,25.40715 C55.3885785,25.40715 54.8110425,25.6508419 54.3817255,26.0794913 L43.9079937,36.5542227 C43.3671546,37.0942187 42.9365563,37.734345 42.6400422,38.451055 C42.3430551,39.1697153 42.1953,39.9257392 42.1953,40.69115 L42.1953,47.52415 L53.234619,47.52415 C53.353249,46.3948395 53.6335145,45.2841555 54.0758055,44.2191465 C54.6794975,42.760452 55.5554855,41.4572696 56.6548595,40.3573237 L64.394489,32.616699 C64.6062525,32.4059248 64.7744505,32.1560656 64.8922235,31.8721374 C65.008437,31.5920248 65.0663,31.2956199 65.0663,30.99315 L65.0663,10.80415 C65.0663,10.1965315 64.8307495,9.6156827 64.392098,9.1767149 C63.954121,8.7384223 63.3748185,8.50365 62.7658,8.50365 C62.157298,8.50365 61.5778805,8.7384688 61.139002,9.1767149 C60.700892,9.6151408 60.4658,10.1956965 60.4658,10.80415 L60.4658,20.93915 L57.9658,20.93915 L57.9658,10.80415 C57.9658,9.53981015 58.459014,8.3218265 59.371553,7.4086304 C60.28485,6.49664775 61.5013265,6.00365 62.7658,6.00365 C64.031257,6.00365 65.248555,6.49698065 66.160502,7.4095851 C67.072297,8.32203745 67.5663,9.5402103 67.5663,10.80415 L67.5663,30.99315 C67.5663,31.6212034 67.4448585,32.2432916 67.2014105,32.8300804 C66.9566245,33.4202136 66.602458,33.9463308 66.1602405,34.3864764 L58.4229135,42.1248035 C57.5540205,42.9941485 56.862922,44.022276 56.3852085,45.176567 C56.0699718,45.9356386 55.8591161,46.7228353 55.7520976,47.5241995 Z" id="path-7"></path>
    </defs>
    <g id="Icons" stroke="none" stroke-width="1" fill="none" fill-rule="evenodd">
        <g id="Bonds/Icons/Coaching/Build/Default">
            <g id="BG">
                <mask id="mask-2" fill="white">
                    <use xlink:href="#path-1"></use>
                </mask>
                <use id="Oval" stroke="#C4C8CB" fill-rule="nonzero" xlink:href="#path-1"></use>
                <g id="Bonds/Colours/General/White" mask="url(#mask-2)" fill="#FFFFFF">
                    <rect id="Rectangle-3" x="0" y="0" width="150" height="150"></rect>
                </g>
            </g>
            <g id="Colour-3" transform="translate(55.000000, 63.500000)">
                <mask id="mask-4" fill="white">
                    <use xlink:href="#path-3"></use>
                </mask>
                <g id="Fill-6" fill-rule="nonzero"></g>
                <g id="Bonds/Colours/General/Light-Grey" mask="url(#mask-4)" fill="#C4C8CB">
                    <g transform="translate(-55.000000, -63.500000)" id="Rectangle-3">
                        <rect x="0" y="0" width="150" height="150"></rect>
                    </g>
                </g>
            </g>
            <g id="Colour-2" transform="translate(51.000000, 43.000000)">
                <mask id="mask-6" fill="white">
                    <use xlink:href="#path-5"></use>
                </mask>
                <g id="Green" fill-rule="nonzero"></g>
                <g id="Bonds/Colours/Icons/Green" mask="url(#mask-6)" fill="#68C2AC">
                    <g transform="translate(-50.500000, -43.000000)" id="Rectangle-3">
                        <rect x="0" y="0" width="150" height="150"></rect>
                    </g>
                </g>
            </g>
            <g id="Colour-1" transform="translate(41.000000, 51.500000)">
                <mask id="mask-8" fill="white">
                    <use xlink:href="#path-7"></use>
                </mask>
                <g id="Blue" fill-rule="nonzero"></g>
                <g id="Bonds/Colours/Icons/Blue" mask="url(#mask-8)" fill="#547190">
                    <g transform="translate(-41.000000, -51.500000)" id="Rectangle-3">
                        <rect x="0" y="0" width="150" height="150"></rect>
                    </g>
                </g>
            </g>
        </g>
    </g>
</svg>