<?xml version="1.0" encoding="UTF-8"?>
<svg width="150px" height="150px" viewBox="0 0 150 150" version="1.1" xmlns="http://www.w3.org/2000/svg" xmlns:xlink="http://www.w3.org/1999/xlink">
    <!-- Generator: Sketch 48.2 (47327) - http://www.bohemiancoding.com/sketch -->
    <title>Bonds/Icons/Coaching/Car Finance/Inactive</title>
    <desc>Created with Sketch.</desc>
    <defs>
        <circle id="path-1" cx="75" cy="75" r="75"></circle>
        <path d="M54.1401293,90.9127538 C61.3689967,90.9128974 65.383214,90.9137629 70.1935104,90.916749 C86.7952736,90.9270549 97.988053,90.9606592 103.237127,91.0306782 C103.311759,87.0098312 106.538696,83.7673077 110.516726,83.7673077 C114.191513,83.7673077 117.225355,86.534324 117.725368,90.1258216 C117.954312,90.1025909 118.209475,90.0781395 118.498953,90.0512465 C118.644095,90.0377691 118.644095,90.0377691 118.788748,90.0242541 C121.689496,89.7522712 122.831434,89.385349 123.028464,88.5650717 C123.009662,88.5101597 122.976811,88.3559603 122.970834,88.3300396 C122.894803,88.0003094 122.798245,87.6120502 122.681134,87.1745599 C122.347506,85.9282335 121.91622,84.5354339 121.379232,83.0374407 C119.847599,78.7647683 117.778666,74.5046543 115.101309,70.5543737 C107.485607,59.3178579 96.5635083,52.7636567 81.6634407,53.1427922 L81.6419027,52.2963462 L81.6237357,53.1601551 C72.4966364,52.9682008 64.8872629,55.6600795 58.6592201,60.283444 C56.5738867,61.8314835 54.8029892,63.482565 53.2916099,65.1707681 C52.8200482,65.6975002 51.2802767,67.6499779 50.9349699,67.7340396 C36.9845762,70.9785701 28.7071748,76.2235726 27.9942777,85.0963121 L27.9821076,85.2477815 L27.9189866,85.3860089 C27.997214,85.2147003 27.9889566,85.3810928 27.9925716,85.1275773 C27.9919135,85.1737299 27.9919152,85.2436681 27.9926548,85.3312394 C27.9943179,85.5281552 27.999462,85.7935368 28.0076522,86.0888179 C28.0280816,86.8253586 28.0635344,87.6309499 28.111658,88.371912 C28.1707618,89.2819361 28.245631,90.0461292 28.3341112,90.5902775 C28.3530057,90.7064779 28.3722573,90.8105645 28.3913104,90.9009886 C29.2560679,90.889511 31.0233234,90.8671392 32.3494389,90.8530679 C34.8317226,90.8267286 37.270056,90.8084436 39.591737,90.8011915 C39.7821837,86.8871703 42.9615665,83.7673077 46.8636283,83.7673077 C50.8026934,83.7673077 54.0053082,86.9466222 54.1401293,90.9127538 Z M54.0015423,92.6407511 C53.3323646,96.0255826 50.3937307,98.579 46.8636283,98.579 C43.2964663,98.5741357 40.3353037,95.9669955 39.7060861,92.5288507 C37.3565317,92.5358501 34.8848896,92.5542617 32.3677735,92.5809706 C30.5345867,92.6004224 27.81753,92.6363077 27.8712832,92.6363077 C26.7325148,92.6363077 26.606743,91.8628178 26.3872911,88.4839053 C26.2921803,87.0194806 26.2424009,85.586093 26.2718285,84.9579187 C27.0620164,75.1232157 35.8118084,69.5212751 50.2648541,66.1162264 C50.3474445,66.0103167 50.5021826,65.8118828 50.5778131,65.715981 C51.0190258,65.1565097 51.4692637,64.6156576 52.0041671,64.0181731 C53.5895548,62.2473031 55.4448764,60.5175094 57.629229,58.8959634 C64.1514166,54.0542416 72.1290502,51.2320879 81.6600696,51.4325372 L81.6597252,51.4489139 C97.1629739,51.0665181 108.590715,57.9300037 116.503116,69.6042802 C119.266601,73.6816387 121.396612,78.0675168 122.973343,82.4659968 C123.943669,85.1728367 124.735127,88.1294755 124.727675,88.6776638 C124.445572,90.7899586 122.858269,91.3435512 118.946837,91.7102989 C118.800832,91.7239402 118.800832,91.7239402 118.655602,91.7374256 C118.314266,91.7691365 118.023708,91.7972074 117.769929,91.8236813 C117.446156,95.6061297 114.325756,98.579 110.516726,98.579 C107.030342,98.5742458 104.122823,96.0837387 103.405497,92.7611226 C98.2566203,92.6895168 86.9914708,92.655177 70.1924377,92.6447487 C65.3519375,92.6417438 61.3175039,92.6408864 54.0015423,92.6407511 Z M39.4211504,75.9907692 C38.5026549,77.1186538 36.5411947,77.6848077 34.9746018,77.9678846 C35.1485432,77.5009841 35.3731558,77.0558488 35.6441593,76.6409615 C36.7815487,74.9955769 38.5627434,73.6730769 40.7087611,72.6026923 C40.6143716,73.8384803 40.1662529,75.0176106 39.4211504,75.9907692 Z" id="path-3"></path>
        <path d="M110.517904,96.8510008 C107.455927,96.8468248 104.967923,94.3103837 104.963805,91.1720201 C104.963805,88.033677 107.453701,85.4953077 110.516726,85.4953077 C113.57975,85.4953077 116.069646,88.033677 116.069646,91.1731538 C116.069646,94.3126307 113.57975,96.851 110.517904,96.8510008 Z M46.8648067,96.8510008 C43.8028296,96.8468248 41.3148255,94.3103837 41.3107072,91.1720201 C41.310708,88.033677 43.8006036,85.4953077 46.8636283,85.4953077 C49.9266531,85.4953077 52.4165487,88.033677 52.4165487,91.1731538 C52.4165487,94.3126307 49.9266531,96.851 46.8648067,96.8510008 Z M82.9996637,68.0399231 L56.8502832,68.0399231 C56.2610619,68.0399231 56.0245133,67.676 56.2911681,67.3603077 C66.4025487,55.4166154 79.8213097,56.6793846 83.7050088,56.6793846 L83.7050088,67.6409231 C83.7050088,67.8513846 83.3910442,68.0399231 82.9996637,68.0399231 Z M107.789965,68.0399231 L107.789965,68.0793846 L86.3414513,68.0793846 C86.2197747,68.0877786 86.0998718,68.0461226 86.0085435,67.9637276 C85.9172151,67.8813326 85.8620762,67.7650686 85.8554513,67.6409231 L85.8554513,56.6793846 C89.5800177,56.6399231 100.753717,57.5168462 107.789965,68.0399231 Z" id="path-5"></path>
    </defs>
    <g id="Icons" stroke="none" stroke-width="1" fill="none" fill-rule="evenodd">
        <g id="Bonds/Icons/Coaching/Car-Finance/Inactive">
            <g id="Bonds/Icons/Coaching/Car-Finance/Default">
                <g id="BG">
                    <mask id="mask-2" fill="white">
                        <use xlink:href="#path-1"></use>
                    </mask>
                    <use id="Oval" stroke="#C4C8CB" fill-rule="nonzero" xlink:href="#path-1"></use>
                    <g id="Bonds/Colours/General/White" mask="url(#mask-2)" fill="#FFFFFF">
                        <rect id="Rectangle-3" x="0" y="0" width="150" height="150"></rect>
                    </g>
                </g>
                <g id="Colour-2">
                    <mask id="mask-4" fill="white">
                        <use xlink:href="#path-3"></use>
                    </mask>
                    <g id="Combined-Shape" fill-rule="nonzero"></g>
                    <g id="Bonds/Colours/Brand/Tertiary" mask="url(#mask-4)" fill="#8D9499">
                        <rect id="Rectangle-3" x="0" y="0" width="150" height="150"></rect>
                    </g>
                </g>
                <g id="Colour-1">
                    <mask id="mask-6" fill="white">
                        <use xlink:href="#path-5"></use>
                    </mask>
                    <g id="Combined-Shape"></g>
                    <g id="Bonds/Colours/General/Light-Grey" mask="url(#mask-6)" fill="#C4C8CB">
                        <rect id="Rectangle-3" x="0" y="0" width="150" height="150"></rect>
                    </g>
                </g>
            </g>
        </g>
    </g>
</svg>