<?xml version="1.0" encoding="UTF-8"?>
<svg width="150px" height="150px" viewBox="0 0 150 150" version="1.1" xmlns="http://www.w3.org/2000/svg" xmlns:xlink="http://www.w3.org/1999/xlink">
    <!-- Generator: Sketch 48.2 (47327) - http://www.bohemiancoding.com/sketch -->
    <title>Bonds/Icons/Coaching/Maximise/Inactive</title>
    <desc>Created with Sketch.</desc>
    <defs>
        <circle id="path-1" cx="75" cy="75" r="75"></circle>
        <path d="M2.5503671,41.4615555 L0.05827848,41.4615555 L0.05827848,25.2629795 L2.5503671,25.2629795 L2.5503671,41.4615555 Z M7.5345443,41.4615555 L5.0424557,41.4615555 L5.0424557,23.3540395 L7.5345443,23.3540395 L7.5345443,41.4615555 Z M12.5187215,41.4615555 L10.0266329,41.4615555 L10.0266329,14.87097 L12.5187215,14.87097 L12.5187215,41.4615555 Z M17.5028987,41.4615555 L15.0108101,41.4615555 L15.0108101,10.3104478 L17.5028987,10.3104478 L17.5028987,41.4615555 Z M22.4870759,41.4615555 L19.9949873,41.4615555 L19.9949873,18.3698623 L22.4870759,18.3698623 L22.4870759,41.4615555 Z M27.4712531,41.4615555 L24.9791646,41.4615555 L24.9791646,20.2788022 L27.4712531,20.2788022 L27.4712531,41.4615555 Z M32.4554304,41.4615555 L29.9633417,41.4615555 L29.9633417,18.3698623 L32.4554304,18.3698623 L32.4554304,41.4615555 Z M37.4396076,41.4615555 L34.947519,41.4615555 L34.947519,9.8867927 L37.4396076,9.8867927 L37.4396076,41.4615555 Z M42.4237848,41.4615555 L39.9316962,41.4615555 L39.9316962,5.32627055 L42.4237848,5.32627055 L42.4237848,41.4615555 Z M47.4079621,41.4615555 L44.9158734,41.4615555 L44.9158734,13.3856851 L47.4079621,13.3856851 L47.4079621,41.4615555 Z M52.392139,41.4615555 L49.9000505,41.4615555 L49.9000505,15.294625 L52.392139,15.294625 L52.392139,41.4615555 Z M57.3763165,41.4615555 L54.884228,41.4615555 L54.884228,13.3856851 L57.3763165,13.3856851 L57.3763165,41.4615555 Z M62.3604935,41.4615555 L59.868405,41.4615555 L59.868405,4.9026155 L62.3604935,4.9026155 L62.3604935,41.4615555 Z M67.344671,41.4615555 L64.8525825,41.4615555 L64.8525825,0.34209335 L67.344671,0.34209335 L67.344671,41.4615555 Z" id="path-3"></path>
        <path d="M65.2248207,5.47774862 C64.9912717,4.98970814 64.8604935,4.44306534 64.8604935,3.86582753 C64.8604935,1.80102652 66.5338255,0.127694621 68.5986265,0.127694621 C70.6634275,0.127694621 72.3367595,1.80102652 72.3367595,3.86582753 C72.3367595,5.93062855 70.6634275,7.60396045 68.5986265,7.60396045 C68.0215422,7.60396045 67.4750367,7.47325185 66.9870948,7.2398196 L57.0213521,17.2094743 C57.2539915,17.6967453 57.384228,18.2423181 57.384228,18.8183592 C57.384228,20.8831602 55.710896,22.5564921 53.646095,22.5564921 C51.581294,22.5564921 49.9079621,20.8831602 49.9079621,18.8183592 C49.9079621,18.242259 50.0382252,17.6966334 50.2709096,17.2093243 L45.2891216,12.2240688 C44.8012179,12.4574559 44.2547654,12.5881376 43.6777405,12.5881376 C43.1006562,12.5881376 42.5541507,12.4574291 42.0662089,12.2239968 L32.1004658,22.1936515 C32.3331053,22.6809225 32.4633417,23.2264953 32.4633417,23.8025364 C32.4633417,25.8673374 30.7900098,27.5406693 28.7252088,27.5406693 C26.6607726,27.5406693 24.9870759,25.8672038 24.9870759,23.8025364 C24.9870759,23.2264744 25.1173671,22.6808661 25.3500838,22.193562 L20.3682355,17.2082461 C19.8803318,17.4416331 19.3338794,17.5723148 18.7568544,17.5723148 C18.1798358,17.5723148 17.6333428,17.4415794 17.1453895,17.2081074 L7.17957976,27.1778287 C7.41221923,27.6650997 7.5424557,28.2106725 7.5424557,28.7867136 C7.5424557,30.8515146 5.8691238,32.5248465 3.80432278,32.5248465 C1.73988657,32.5248465 0.0661898735,30.8513811 0.0661898735,28.7867136 C0.0661898735,26.7220462 1.73988657,25.0485807 3.80432278,25.0485807 C4.38260323,25.0485807 4.93017804,25.1798317 5.41888788,25.4141744 L15.383109,15.4460423 C15.1495277,14.9580068 15.0187215,14.4113814 15.0187215,13.8341819 C15.0187215,11.7695145 16.6924182,10.096049 18.7568544,10.096049 C20.8216554,10.096049 22.4949873,11.7693809 22.4949873,13.8341819 C22.4949873,14.411479 22.3641824,14.9581747 22.1305883,15.4462532 L27.1108606,20.4299921 C27.599544,20.1956546 28.1470534,20.0644035 28.7252088,20.0644035 C29.3034893,20.0644035 29.8510641,20.1956545 30.3397739,20.4299972 L40.3039347,10.4619256 C40.0703857,9.97388516 39.9396076,9.42724246 39.9396076,8.85000475 C39.9396076,6.78520375 41.6129395,5.11187185 43.6777405,5.11187185 C45.7425415,5.11187185 47.4158734,6.78520375 47.4158734,8.85000475 C47.4158734,9.42730177 47.2850684,9.97399749 47.0514743,10.462076 L52.0316799,15.4457481 C52.5203517,15.2114504 53.0678737,15.0802262 53.646095,15.0802262 C54.2243755,15.0802262 54.7719503,15.2114773 55.2606601,15.44582 L65.2248207,5.47774862 Z M69.844671,59.937821 L69.844671,62.42991 L2.55827848,62.42991 L2.55827848,59.937821 L69.844671,59.937821 Z M5.0503671,57.4457325 L2.55827848,57.4457325 L2.55827848,54.953644 L5.0503671,54.953644 L5.0503671,57.4457325 Z M10.0345443,57.4457325 L7.5424557,57.4457325 L7.5424557,54.953644 L10.0345443,54.953644 L10.0345443,57.4457325 Z M15.0187215,57.4457325 L12.5266329,57.4457325 L12.5266329,54.953644 L15.0187215,54.953644 L15.0187215,57.4457325 Z M20.0028987,57.4457325 L17.5108101,57.4457325 L17.5108101,54.953644 L20.0028987,54.953644 L20.0028987,57.4457325 Z M24.9870759,57.4457325 L22.4949873,57.4457325 L22.4949873,54.953644 L24.9870759,54.953644 L24.9870759,57.4457325 Z M29.9712532,57.4457325 L27.4791646,57.4457325 L27.4791646,54.953644 L29.9712532,54.953644 L29.9712532,57.4457325 Z M34.9554304,57.4457325 L32.4633417,57.4457325 L32.4633417,54.953644 L34.9554304,54.953644 L34.9554304,57.4457325 Z M39.9396076,57.4457325 L37.447519,57.4457325 L37.447519,54.953644 L39.9396076,54.953644 L39.9396076,57.4457325 Z M44.9237848,57.4457325 L42.4316962,57.4457325 L42.4316962,54.953644 L44.9237848,54.953644 L44.9237848,57.4457325 Z M49.9079621,57.4457325 L47.4158734,57.4457325 L47.4158734,54.953644 L49.9079621,54.953644 L49.9079621,57.4457325 Z M54.892139,57.4457325 L52.4000505,57.4457325 L52.4000505,54.953644 L54.892139,54.953644 L54.892139,57.4457325 Z M59.8763165,57.4457325 L57.384228,57.4457325 L57.384228,54.953644 L59.8763165,54.953644 L59.8763165,57.4457325 Z M64.8604935,57.4457325 L62.368405,57.4457325 L62.368405,54.953644 L64.8604935,54.953644 L64.8604935,57.4457325 Z M69.844671,57.4457325 L67.3525825,57.4457325 L67.3525825,54.953644 L69.844671,54.953644 L69.844671,57.4457325 Z M5.0503671,28.7867136 C5.0503671,28.0982551 4.49278126,27.5406693 3.80432278,27.5406693 C3.11615203,27.5406693 2.55827848,28.0984658 2.55827848,28.7867136 C2.55827848,29.4749614 3.11615203,30.0327579 3.80432278,30.0327579 C4.49278126,30.0327579 5.0503671,29.4751721 5.0503671,28.7867136 Z M20.0028987,13.8341819 C20.0028987,13.1457235 19.4453129,12.5881376 18.7568544,12.5881376 C18.0686837,12.5881376 17.5108101,13.1459341 17.5108101,13.8341819 C17.5108101,14.5224297 18.0686837,15.0802262 18.7568544,15.0802262 C19.4453129,15.0802262 20.0028987,14.5226404 20.0028987,13.8341819 Z M29.9712532,23.8025364 C29.9712532,23.1140779 29.4136674,22.5564921 28.7252089,22.5564921 C28.0370381,22.5564921 27.4791646,23.1142886 27.4791646,23.8025364 C27.4791646,24.4907842 28.0370381,25.0485807 28.7252089,25.0485807 C29.4136674,25.0485807 29.9712532,24.4909949 29.9712532,23.8025364 Z M44.9237848,8.85000475 C44.9237848,8.16154625 44.366199,7.60396045 43.6777405,7.60396045 C42.989282,7.60396045 42.4316962,8.16154625 42.4316962,8.85000475 C42.4316962,9.53846325 42.989282,10.096049 43.6777405,10.096049 C44.366199,10.096049 44.9237848,9.53846325 44.9237848,8.85000475 Z M54.892139,18.8183592 C54.892139,18.1299007 54.3345535,17.5723148 53.646095,17.5723148 C52.9576365,17.5723148 52.4000505,18.1299007 52.4000505,18.8183592 C52.4000505,19.5068176 52.9576365,20.0644035 53.646095,20.0644035 C54.3345535,20.0644035 54.892139,19.5068176 54.892139,18.8183592 Z M69.844671,3.86582753 C69.844671,3.17736905 69.287085,2.61978323 68.5986265,2.61978323 C67.910168,2.61978323 67.3525825,3.17736905 67.3525825,3.86582753 C67.3525825,4.55428601 67.910168,5.11187185 68.5986265,5.11187185 C69.287085,5.11187185 69.844671,4.55428601 69.844671,3.86582753 Z" id="path-5"></path>
    </defs>
    <g id="Icons" stroke="none" stroke-width="1" fill="none" fill-rule="evenodd">
        <g id="Bonds/Icons/Coaching/Maximise/Inactive">
            <g id="Bonds/Icons/Coaching/Maximise/Default">
                <g id="BG">
                    <mask id="mask-2" fill="white">
                        <use xlink:href="#path-1"></use>
                    </mask>
                    <use id="Oval" stroke="#C4C8CB" fill-rule="nonzero" xlink:href="#path-1"></use>
                    <g id="Bonds/Colours/General/White" mask="url(#mask-2)" fill="#FFFFFF">
                        <rect id="Rectangle-3" x="0" y="0" width="150" height="150"></rect>
                    </g>
                </g>
                <g id="Colour-2" transform="translate(41.500000, 55.000000)">
                    <mask id="mask-4" fill="white">
                        <use xlink:href="#path-3"></use>
                    </mask>
                    <g id="Green" fill-rule="nonzero"></g>
                    <g id="Bonds/Colours/General/Light-Grey" mask="url(#mask-4)" fill="#C4C8CB">
                        <g transform="translate(-41.500000, -55.000000)" id="Rectangle-3">
                            <rect x="0" y="0" width="150" height="150"></rect>
                        </g>
                    </g>
                </g>
                <g id="Colour-1" transform="translate(39.000000, 44.000000)">
                    <mask id="mask-6" fill="white">
                        <use xlink:href="#path-5"></use>
                    </mask>
                    <g id="Blue" fill-rule="nonzero"></g>
                    <g id="Bonds/Colours/General/Grey" mask="url(#mask-6)" fill="#919191">
                        <g transform="translate(-39.000000, -44.000000)" id="Rectangle-3">
                            <rect x="0" y="0" width="150" height="150"></rect>
                        </g>
                    </g>
                </g>
            </g>
        </g>
    </g>
</svg>