<?xml version="1.0" encoding="UTF-8"?>
<svg width="150px" height="150px" viewBox="0 0 150 150" version="1.1" xmlns="http://www.w3.org/2000/svg" xmlns:xlink="http://www.w3.org/1999/xlink">
    <!-- Generator: Sketch 48.2 (47327) - http://www.bohemiancoding.com/sketch -->
    <title>Bonds/Icons/Coaching/Mortgages/Inactive</title>
    <desc>Created with Sketch.</desc>
    <defs>
        <circle id="path-1" cx="75" cy="75" r="75"></circle>
        <path d="M54.2955376,14.8123496 L88.4674707,2.91912707 L88.4674707,84.337058 L0.346534653,84.337058 L0.346534653,43.9561595 L36.9429995,30.413047 L36.9429995,20.8576994 L40.9669604,19.4562485 L40.9669604,0.25 L54.2955376,0.25 L54.2955376,14.8123496 Z M36.5241013,81.7889654 L36.5241013,33.2923917 L2.88531126,45.7270839 L2.88531126,81.7889654 L11.8218049,81.7889654 L11.8218049,56.9450619 L28.2096079,56.9450619 L28.2096079,81.7889654 L36.5241013,81.7889654 Z M85.9286941,81.7889654 L85.9286941,6.49919727 L39.4754291,22.6732155 L39.4754291,81.7889654 L44.8259008,81.7889654 L44.8259008,56.976913 L61.2137038,56.976913 L61.2137038,81.7889654 L65.1361137,81.7889654 L65.1361137,56.976913 L81.5239167,56.976913 L81.5239167,81.7889654 L85.9286941,81.7889654 Z M44.7687783,51.8488765 L81.5810392,51.8488765 L81.5810392,54.3969692 L44.7687783,54.3969692 L44.7687783,51.8488765 Z M11.7646824,51.8488765 L28.203261,51.8488765 L28.203261,54.3969692 L11.7646824,54.3969692 L11.7646824,51.8488765 Z M62.5465615,39.7454363 C59.2093339,39.7454363 56.2007111,37.7277621 54.9236094,34.6332519 C53.6465076,31.5387418 54.3524302,27.9768065 56.7122065,25.608371 C59.0719829,23.2399354 62.6208954,22.5314224 65.7040917,23.8132105 C68.7872881,25.0949986 70.7975855,28.1146615 70.7975855,31.4641352 C70.7975855,36.0377715 67.1034763,39.7454363 62.5465615,39.7454363 Z M62.5465615,25.7309267 C59.3917744,25.7309267 56.8343142,28.2977716 56.8343142,31.4641352 C56.8343142,34.6304988 59.3917744,37.1973437 62.5465615,37.1973437 C65.7013486,37.1973437 68.2588089,34.6304988 68.2588089,31.4641352 C68.2588089,28.2977716 65.7013486,25.7309267 62.5465615,25.7309267 Z" id="path-3"></path>
        <path d="M0.297112112,56.9613034 L11.7469946,56.9613034 L11.7469946,79.3271868 L0.297112112,79.3271868 L0.297112112,56.9613034 Z M33.301208,56.9613034 L44.7510905,56.9613034 L44.7510905,79.3271868 L33.301208,79.3271868 L33.301208,56.9613034 Z M53.6114209,56.9613034 L65.0613034,56.9613034 L65.0613034,79.3271868 L53.6114209,79.3271868 L53.6114209,56.9613034 Z M29.49939,0.298092668 L37.750414,0.298092668 L37.756761,13.038556 L29.505737,16.2236718 L29.49939,0.298092668 Z" id="path-5"></path>
    </defs>
    <g id="Icons" stroke="none" stroke-width="1" fill="none" fill-rule="evenodd">
        <g id="Bonds/Icons/Coaching/Mortgages/Inactive">
            <g id="Bonds/Icons/Coaching/Mortgages/Default">
                <g id="BG">
                    <mask id="mask-2" fill="white">
                        <use xlink:href="#path-1"></use>
                    </mask>
                    <use id="Oval" stroke="#C4C8CB" fill-rule="nonzero" xlink:href="#path-1"></use>
                    <g id="Bonds/Colours/General/White" mask="url(#mask-2)" fill="#FFFFFF">
                        <rect id="Rectangle-3" x="0" y="0" width="150" height="150"></rect>
                    </g>
                </g>
                <g id="Colour-2" transform="translate(30.500000, 32.500000)">
                    <mask id="mask-4" fill="white">
                        <use xlink:href="#path-3"></use>
                    </mask>
                    <g id="Shape" fill-rule="nonzero"></g>
                    <g id="Bonds/Colours/General/Grey" mask="url(#mask-4)" fill="#919191">
                        <g transform="translate(-30.500000, -32.500000)" id="Rectangle-3">
                            <rect x="0" y="0" width="150" height="150"></rect>
                        </g>
                    </g>
                </g>
                <g id="Colour-1" transform="translate(44.500000, 35.000000)">
                    <mask id="mask-6" fill="white">
                        <use xlink:href="#path-5"></use>
                    </mask>
                    <g id="Combined-Shape" fill-rule="nonzero"></g>
                    <g id="Bonds/Colours/General/Light-Grey" mask="url(#mask-6)" fill="#C4C8CB">
                        <g transform="translate(-44.500000, -35.000000)" id="Rectangle-3">
                            <rect x="0" y="0" width="150" height="150"></rect>
                        </g>
                    </g>
                </g>
            </g>
        </g>
    </g>
</svg>