<?xml version="1.0" encoding="UTF-8"?>
<svg width="150px" height="150px" viewBox="0 0 150 150" version="1.1" xmlns="http://www.w3.org/2000/svg" xmlns:xlink="http://www.w3.org/1999/xlink">
    <!-- Generator: Sketch 48.2 (47327) - http://www.bohemiancoding.com/sketch -->
    <title>Bonds/Icons/Coaching/Play/Inactive</title>
    <desc>Created with Sketch.</desc>
    <defs>
        <circle id="path-1" cx="75" cy="75" r="75"></circle>
        <path d="M2.75,4.46498736 L2.75,69.6239309 C2.75,71.1715343 4.60489793,71.9163039 5.87270261,70.8267843 L6.12839404,70.6567747 C6.10046757,70.6707379 44.79392,43.7396062 48.3055097,41.2842112 C48.5868369,41.0796096 48.8146804,40.8692925 48.9830998,40.6587706 C50.6715054,38.5547574 50.6715054,35.5082219 48.9878679,33.4360528 C48.8200537,33.2083512 48.6471002,33.0531365 48.3243773,32.8181633 C46.5493422,31.5768801 41.1070859,27.789678 27.3720755,18.235367 C18.7291866,12.2232238 15.9752112,10.3073629 12.6789618,8.01343895 C10.5592102,6.53826264 8.94687879,5.41574025 7.82814897,4.63618425 C7.22936147,4.21893571 6.7731917,3.90078269 6.46242839,3.68365502 C6.30217679,3.57168859 6.18043572,3.48647796 6.09743022,3.42817564 C5.57718274,3.06275841 5.81385406,3.23113217 5.81756097,3.21619297 C4.5518477,2.19423588 2.75,2.93967528 2.75,4.46498736 Z M0.25,69.6239309 L0.25,4.46498736 C0.25,0.703450022 4.66724041,-1.07013893 7.50211947,1.36608526 C7.61533445,1.43926722 7.7355853,1.52343479 7.89428393,1.63431618 C8.20400915,1.85071854 8.65942769,2.16834761 9.25742727,2.58504711 C10.3756483,3.36424858 11.9876237,4.48652309 14.1069926,5.96143306 C17.4030403,8.2552167 20.1569753,10.1710495 28.7985152,16.1822542 C42.5398541,25.7409675 47.9792906,29.5262073 49.775939,30.7828669 C50.2996733,31.1637645 50.6393725,31.4666812 50.9483308,31.8845062 C53.356469,34.8724726 53.3497595,39.2116896 50.9340964,42.2219751 C50.617579,42.6176219 50.2277629,42.9774522 49.7570714,43.3195076 C44.8551108,46.7474521 10.7835543,70.462432 7.50008688,72.7204678 C4.66724041,75.1590572 0.25,73.3854682 0.25,69.6239309 Z" id="path-3"></path>
    </defs>
    <g id="Icons" stroke="none" stroke-width="1" fill="none" fill-rule="evenodd">
        <g id="Bonds/Icons/Coaching/Play/Inactive">
            <g id="Bonds/Icons/Coaching/Play/Default">
                <g id="BG">
                    <mask id="mask-2" fill="white">
                        <use xlink:href="#path-1"></use>
                    </mask>
                    <use id="Oval" stroke="#C4C8CB" fill-rule="nonzero" xlink:href="#path-1"></use>
                    <g id="Bonds/Colours/General/White" mask="url(#mask-2)" fill="#FFFFFF">
                        <rect id="Rectangle-3" x="0" y="0" width="150" height="150"></rect>
                    </g>
                </g>
                <g id="Colour-1" transform="translate(55.500000, 38.000000)">
                    <mask id="mask-4" fill="white">
                        <use xlink:href="#path-3"></use>
                    </mask>
                    <g id="Shape" fill-rule="nonzero"></g>
                    <g id="Bonds/Colours/General/Grey" mask="url(#mask-4)" fill="#919191">
                        <g transform="translate(-55.500000, -38.000000)" id="Rectangle-3">
                            <rect x="0" y="0" width="150" height="150"></rect>
                        </g>
                    </g>
                </g>
            </g>
        </g>
    </g>
</svg>