<?xml version="1.0" encoding="UTF-8"?>
<svg width="150px" height="150px" viewBox="0 0 150 150" version="1.1" xmlns="http://www.w3.org/2000/svg" xmlns:xlink="http://www.w3.org/1999/xlink">
    <!-- Generator: Sketch 48.2 (47327) - http://www.bohemiancoding.com/sketch -->
    <title>Bonds/Icons/Coaching/Protect/Default</title>
    <desc>Created with Sketch.</desc>
    <defs>
        <circle id="path-1" cx="75" cy="75" r="75"></circle>
        <path d="M29.7437025,71.401429 C25.1886629,71.401429 21.4834256,67.57059 21.4834256,62.8625365 L21.4834256,14.3505427 L23.9755142,14.3505427 L23.9755142,62.8625365 C23.9755142,66.196951 26.563299,68.90934 29.7437025,68.90934 C32.9265981,68.90934 35.5158781,66.196951 35.5158781,62.8625365 L38.0079667,62.8625365 C38.0079667,67.57059 34.3007357,71.401429 29.7437025,71.401429 Z M0.42976265,21.622856 L0.42976265,16.7867088 L2.92185125,16.7867088 L2.92185125,21.622856 L0.42976265,21.622856 Z M42.2455143,20.3284652 L42.2455143,9.2725633 L44.7376029,9.2725633 L44.7376029,20.3284652 L42.2455143,20.3284652 Z M26.1845016,6.7675158 L26.1845016,0.376803798 L28.6765902,0.376803798 L28.6765902,6.7675158 L26.1845016,6.7675158 Z M8.460269,15.316875 L8.460269,5.81703325 L10.9523576,5.81703325 L10.9523576,15.316875 L8.460269,15.316875 Z M32.8408702,14.9181408 L32.8408702,11.3983148 L35.3329588,11.3983148 L35.3329588,14.9181408 L32.8408702,14.9181408 Z" id="path-3"></path>
        <path d="M27.8940973,0.36511075 C27.8397698,0.36261865 27.7844454,0.36261865 27.729121,0.36261865 C27.6723014,0.36261865 27.6199675,0.36261865 27.5726179,0.36511075 C13.9588362,0.44087025 2.65671598,10.5786867 0.151170095,23.9836314 C1.7600625,22.5038291 4.19433465,21.5563371 6.9241685,21.5563371 C9.7447144,21.5563371 12.2587334,22.5716139 13.8566606,24.1386393 C15.4515973,22.568125 17.9646194,21.5563371 20.7946353,21.5563371 C23.6181717,21.5563371 26.1346827,22.5731092 27.729121,24.1436234 C29.3250546,22.5731092 31.8410672,21.5563371 34.6636068,21.5563371 C37.4966132,21.5563371 40.0101337,22.568125 41.6050704,24.1386393 C43.201004,22.5716139 45.7140261,21.5563371 48.534572,21.5563371 C51.2649045,21.5563371 53.7051575,22.5038291 55.3055765,23.9836314 C52.8030215,10.5786867 41.5009011,0.44087025 27.8940973,0.36511075" id="path-5"></path>
    </defs>
    <g id="Icons" stroke="none" stroke-width="1" fill="none" fill-rule="evenodd">
        <g id="Bonds/Icons/Coaching/Protect/Default">
            <g id="BG">
                <mask id="mask-2" fill="white">
                    <use xlink:href="#path-1"></use>
                </mask>
                <use id="Oval" stroke="#C4C8CB" fill-rule="nonzero" xlink:href="#path-1"></use>
                <g id="Bonds/Colours/General/White" mask="url(#mask-2)" fill="#FFFFFF">
                    <rect id="Rectangle-3" x="0" y="0" width="150" height="150"></rect>
                </g>
            </g>
            <g id="Colour-2" transform="translate(52.500000, 39.500000)">
                <mask id="mask-4" fill="white">
                    <use xlink:href="#path-3"></use>
                </mask>
                <g id="Blue" fill-rule="nonzero"></g>
                <g id="Bonds/Colours/Icons/Blue" mask="url(#mask-4)" fill="#547190">
                    <g transform="translate(-52.500000, -39.500000)" id="Rectangle-3">
                        <rect x="0" y="0" width="150" height="150"></rect>
                    </g>
                </g>
            </g>
            <g id="Colour-1" transform="translate(47.500000, 58.000000)">
                <mask id="mask-6" fill="white">
                    <use xlink:href="#path-5"></use>
                </mask>
                <g id="Green" fill-rule="nonzero"></g>
                <g id="Bonds/Colours/Icons/Green" mask="url(#mask-6)" fill="#68C2AC">
                    <g transform="translate(-47.500000, -58.000000)" id="Rectangle-3">
                        <rect x="0" y="0" width="150" height="150"></rect>
                    </g>
                </g>
            </g>
        </g>
    </g>
</svg>