<?xml version="1.0" encoding="UTF-8"?>
<svg width="150px" height="150px" viewBox="0 0 150 150" version="1.1" xmlns="http://www.w3.org/2000/svg" xmlns:xlink="http://www.w3.org/1999/xlink">
    <!-- Generator: Sketch 48.2 (47327) - http://www.bohemiancoding.com/sketch -->
    <title>Bonds/Icons/Coaching/Repair/Inactive</title>
    <desc>Created with Sketch.</desc>
    <defs>
        <circle id="path-1" cx="75" cy="75" r="75"></circle>
        <polygon id="path-3" points="0.32096755 0.17901505 0.31997075 39.4423695 5.2079533 34.5553835 10.0954375 39.4423695 10.0964344 0.17901505"></polygon>
        <path d="M28.0750412,22.4250593 L10.4842666,22.4250593 L10.4842666,12.5972587 L12.9539264,12.5972587 C16.3092745,12.5972587 19.0391084,9.8659296 19.0391084,6.5085878 L19.0391084,5.2625435 L28.0750485,5.2625435 L28.0763686,0.376803798 L40.3424288,0.376803798 L40.3424288,5.2625435 L53.662194,5.2625435 L57.9311415,8.3163489 L57.9311415,19.3727492 L53.662194,22.4250593 L40.3425965,22.4250593 L40.342464,27.6452374 L47.0446519,27.6452374 L67.9258625,27.6452374 L67.9258625,41.6303402 L58.7315505,41.6303402 L58.7315505,53.1233545 L40.3418172,53.1233545 L40.3416313,60.442569 C40.3416313,60.6661618 40.2818676,60.8800393 40.1747069,61.0656517 L34.2088007,71.401429 L28.2407469,61.0657405 L28.2409755,61.0656085 C28.1338304,60.8800061 28.0740759,60.6661444 28.0740759,60.442569 L28.0742618,53.1233545 L21.3716535,53.1233545 L0.48994462,53.1233545 L0.48994462,39.1377531 L9.68475475,39.1377531 L9.68475475,27.6452374 L28.0749086,27.6452374 L28.0750412,22.4250593 Z M30.5671271,22.4250593 L30.5661645,57.434618 L32.9617745,55.0394404 L32.9627202,22.4250593 L30.5671271,22.4250593 Z M35.4548088,22.4250593 L35.4538631,55.0393707 L37.8495427,57.434618 L37.8505053,22.4250593 L35.4548088,22.4250593 Z M30.5674604,5.2625435 L37.8503402,5.2625435 L37.8503402,2.8688924 L30.5674604,2.8688924 L30.5674604,5.2625435 Z M37.5385992,60.6480702 L34.2076044,57.3174895 L30.8770211,60.6476588 L33.2047898,64.678621 L35.2122861,64.678621 L37.5385992,60.6480702 Z M40.3424288,50.631266 L56.239462,50.631266 L56.239462,41.6298417 L40.3424288,41.6298417 L40.3424288,50.631266 Z M49.5372389,39.1382516 L65.434272,39.1382516 L65.434272,30.137326 L49.5372389,30.137326 L49.5372389,39.1382516 Z M12.1773418,39.1382516 L28.074375,39.1382516 L28.074375,30.137326 L12.1773418,30.137326 L12.1773418,39.1382516 Z M2.98153481,50.631266 L18.8790665,50.631266 L18.8790665,41.6298417 L2.98153481,41.6298417 L2.98153481,50.631266 Z M40.3424288,39.1382516 L47.0446519,39.1382516 L47.0446519,30.137326 L40.3424288,30.137326 L40.3424288,39.1382516 Z M21.3716535,50.631266 L28.0738766,50.631266 L28.0738766,41.6298417 L21.3716535,41.6298417 L21.3716535,50.631266 Z M12.9763552,19.9329707 L52.862732,19.9329707 L55.439053,18.0908188 L55.439053,9.59778085 L52.862732,7.7546321 L21.4409834,7.7546321 C20.8369011,11.8905023 17.272716,15.0783821 12.9763552,15.0893473 L12.9763552,19.9329707 Z" id="path-5"></path>
    </defs>
    <g id="Icons" stroke="none" stroke-width="1" fill="none" fill-rule="evenodd">
        <g id="Bonds/Icons/Coaching/Repair/Inactive">
            <g id="Bonds/Icons/Coaching/Repair/Default">
                <g id="BG">
                    <mask id="mask-2" fill="white">
                        <use xlink:href="#path-1"></use>
                    </mask>
                    <use id="Oval" stroke="#C4C8CB" fill-rule="nonzero" xlink:href="#path-1"></use>
                    <g id="Bonds/Colours/General/White" mask="url(#mask-2)" fill="#FFFFFF">
                        <rect id="Rectangle-3" x="0" y="0" width="150" height="150"></rect>
                    </g>
                </g>
                <g id="Colour-2" transform="translate(70.500000, 63.500000)">
                    <mask id="mask-4" fill="white">
                        <use xlink:href="#path-3"></use>
                    </mask>
                    <g id="Green" fill-rule="nonzero"></g>
                    <g id="Bonds/Colours/General/Light-Grey" mask="url(#mask-4)" fill="#C4C8CB">
                        <g transform="translate(-70.500000, -63.500000)" id="Rectangle-3">
                            <rect x="0" y="0" width="150" height="150"></rect>
                        </g>
                    </g>
                </g>
                <g id="Colour-1" transform="translate(41.500000, 42.500000)">
                    <mask id="mask-6" fill="white">
                        <use xlink:href="#path-5"></use>
                    </mask>
                    <g id="Blue" fill-rule="nonzero"></g>
                    <g id="Bonds/Colours/General/Grey" mask="url(#mask-6)" fill="#919191">
                        <g transform="translate(-41.500000, -42.500000)" id="Rectangle-3">
                            <rect x="0" y="0" width="150" height="150"></rect>
                        </g>
                    </g>
                </g>
            </g>
        </g>
    </g>
</svg>