<?xml version="1.0" encoding="UTF-8"?>
<svg width="150px" height="150px" viewBox="0 0 150 150" version="1.1" xmlns="http://www.w3.org/2000/svg" xmlns:xlink="http://www.w3.org/1999/xlink">
    <!-- Generator: Sketch 48.2 (47327) - http://www.bohemiancoding.com/sketch -->
    <title>Bonds/Icons/Coaching/Savings/Inactive</title>
    <desc>Created with Sketch.</desc>
    <defs>
        <circle id="path-1" cx="75" cy="75" r="75"></circle>
        <ellipse id="path-3" cx="4.31570285" cy="4.00854575" rx="3.90983733" ry="3.89546603"></ellipse>
        <path d="M64.8513074,61.5027614 C64.7931591,61.0665339 64.7631465,60.6214524 64.7631465,60.1693868 C64.7631465,54.6290392 69.2710553,50.1377 74.8318426,50.1377 C80.3926299,50.1377 84.9005387,54.6290392 84.9005387,60.1693868 C84.9000719,60.5084159 84.8827511,60.8435076 84.8493663,61.1738748 C91.4802953,61.8752927 97.8170154,63.7010117 102.249144,67.6707444 C104.029877,69.2566804 105.464344,71.1904347 106.463465,73.3519197 C106.733645,73.4258273 106.974948,73.579694 107.155471,73.793176 C108.712486,75.6547261 110.269501,76.2683482 111.805756,75.620253 C114.35234,74.537796 116.276118,70.5182267 116.006236,68.1120007 C115.922155,67.3504409 116.473638,66.6651644 117.238007,66.5813929 C118.002377,66.4976213 118.690181,67.0470772 118.774262,67.808637 C119.154866,71.276636 116.698242,76.5579227 112.899126,78.1574769 C111.300772,78.851909 109.472012,78.7833922 107.930519,77.9713219 C108.217714,79.5222079 108.359035,81.0964107 108.352643,82.6734596 C108.352643,103.384929 92.0904873,106.128991 87.9384477,106.494407 L83.571886,116.932877 L73.6969517,116.932877 L71.9600152,108.280116 L65.4413129,108.280116 L62.832448,116.932877 L51.1859768,116.932877 L47.4975816,103.260825 L37.7472085,92.7051465 L30.8894231,92.7051465 L30.8894231,80.6395437 L32.0450741,80.4464941 C32.0935146,80.4395994 36.85452,79.6191385 39.1104616,77.371489 C40.9927195,75.4961496 44.3143512,69.9597616 45.6568441,67.5949035 L45.6568441,56.2118691 L57.7531195,62.2308812 C58.7080886,62.1481457 59.8775798,62.0240423 61.2131526,61.8792551 C62.3329009,61.7598252 63.5527884,61.6297877 64.8513074,61.5027614 Z M65.6194641,64.2240172 C64.1451615,64.3647013 62.7668525,64.5112418 61.5176355,64.6440018 C59.9883009,64.8094729 58.6665683,64.9473655 57.5731978,65.0369957 L57.1856741,65.0369957 L48.4179504,60.6726948 L48.4179504,68.311945 L48.2449488,68.629098 C48.065027,68.9738295 43.7053854,76.6889206 41.0688403,79.3157747 C38.9582201,81.4255316 35.4635867,82.4873046 33.6574495,82.9216663 L33.6574495,89.9472944 L38.9513,89.9472944 L50.0234057,101.888794 L53.3104371,114.175025 L60.7771884,114.175025 L63.4137336,105.522264 L74.2297968,105.522264 L75.9667334,114.175025 L81.7242284,114.175025 L86.0700299,103.791712 L86.9903986,103.791712 C87.7516059,103.791712 105.584616,103.481453 105.584616,82.6941435 C105.584616,77.1025985 103.86844,72.8624009 100.408407,69.7460281 C96.3897413,66.1449281 90.4559099,64.5043755 84.1805206,63.8907609 C82.6944544,67.5850991 79.0696138,70.1952819 74.8318426,70.2010737 C70.7193517,70.2010737 67.1827191,67.744594 65.6194641,64.2240172 Z M65.2752313,72.6417728 L82.6445972,72.6417728 L82.6445972,75.3996248 L65.2752313,75.3996248 L65.2752313,72.6417728 Z M86.1253904,45.9733434 C83.1041138,45.9761318 80.3789048,44.164626 79.2214191,41.3841229 C78.0639333,38.6036198 78.702317,35.4021705 80.8386831,33.273657 C82.9750492,31.1451434 86.1883094,30.5091063 88.9790704,31.6623375 C91.7698314,32.8155687 93.5880204,35.5307607 93.5852216,38.5409321 C93.5776049,42.642592 90.2421824,45.9657547 86.1253904,45.9733434 Z M74.8318426,52.895552 C70.799794,52.895552 67.5311729,56.1521588 67.5311729,60.1693868 C67.5311729,64.1866149 70.799794,67.4432216 74.8318426,67.4432216 C78.8638911,67.4432216 82.1325123,64.1866149 82.1325123,60.1693868 C82.1286973,56.1537342 78.8623099,52.8993529 74.8318426,52.895552 Z M86.1253904,43.2223859 C88.7204245,43.2223859 90.8241152,41.1264276 90.8241152,38.5409321 C90.8241152,35.9554365 88.7204245,33.8594782 86.1253904,33.8594782 C83.5303563,33.8594782 81.4266655,35.9554365 81.4266655,38.5409321 C81.4266655,41.1264276 83.5303563,43.2223859 86.1253904,43.2223859 Z" id="path-5"></path>
    </defs>
    <g id="Icons" stroke="none" stroke-width="1" fill="none" fill-rule="evenodd">
        <g id="Bonds/Icons/Coaching/Savings/Inactive">
            <g id="Bonds/Icons/Coaching/Savings/Default">
                <g id="BG">
                    <mask id="mask-2" fill="white">
                        <use xlink:href="#path-1"></use>
                    </mask>
                    <use id="Oval" stroke="#C4C8CB" fill-rule="nonzero" xlink:href="#path-1"></use>
                    <g id="Bonds/Colours/General/White" mask="url(#mask-2)" fill="#FFFFFF">
                        <rect id="Rectangle-3" x="0" y="0" width="150" height="150"></rect>
                    </g>
                </g>
                <g id="Colour-2" transform="translate(47.500000, 76.500000)">
                    <mask id="mask-4" fill="white">
                        <use xlink:href="#path-3"></use>
                    </mask>
                    <g id="Oval" fill-rule="nonzero"></g>
                    <g id="Bonds/Colours/General/Light-Grey" mask="url(#mask-4)" fill="#C4C8CB">
                        <g transform="translate(-47.500000, -76.500000)" id="Rectangle-3">
                            <rect x="0" y="0" width="150" height="150"></rect>
                        </g>
                    </g>
                </g>
                <g id="Colour-1">
                    <mask id="mask-6" fill="white">
                        <use xlink:href="#path-5"></use>
                    </mask>
                    <g id="Shape" fill-rule="nonzero"></g>
                    <g id="Bonds/Colours/General/Grey" mask="url(#mask-6)" fill="#919191">
                        <rect id="Rectangle-3" x="0" y="0" width="150" height="150"></rect>
                    </g>
                </g>
            </g>
        </g>
    </g>
</svg>