<?xml version="1.0" encoding="UTF-8"?>
<svg width="42px" height="42px" viewBox="0 0 42 42" version="1.1" xmlns="http://www.w3.org/2000/svg" xmlns:xlink="http://www.w3.org/1999/xlink">
    <!-- Generator: Sketch 48.2 (47327) - http://www.bohemiancoding.com/sketch -->
    <title>Bonds/Icons/Coaching/Time</title>
    <desc>Created with Sketch.</desc>
    <defs>
        <path d="M21.4932401,36.0284314 C15.1051282,36.0284314 9.92703963,30.7715 9.92703963,24.2862059 C9.92703963,17.8009804 15.1051282,12.5509804 21.4932401,12.5509804 C27.881352,12.5509804 33.0594406,17.8078431 33.0594406,24.2931373 C33.0594406,30.7784314 27.881352,36.0284314 21.4932401,36.0284314 M23.3386946,9.69607843 C30.4703963,10.6156863 35.9864802,16.7990196 35.9864802,24.2862059 C35.9864802,32.4117647 29.4969697,39 21.4932401,39 C13.4895105,39 7,32.4117647 7,24.3 C7,20.2647059 8.6020979,16.6068627 11.1911422,13.9509804 C11.1843823,13.9372549 11.1776224,13.9303922 11.1708625,13.9235294 L11.1438228,13.9578431 C10.555711,14.3627451 9.73776224,14.2323529 9.2983683,13.6490196 L8.41958042,12.4823529 C7.96666667,11.8784314 8.08158508,11 8.67645688,10.5401961 L11.495338,8.36470588 C12.0902098,7.90490196 12.9554779,8.02156863 13.4083916,8.6254902 L14.2871795,9.79215686 C14.6995338,10.3480392 14.6386946,11.1303922 14.1655012,11.6107843 C15.8149184,10.622549 17.6671329,9.95686275 19.6545455,9.70294118 C19.6477855,9.6754902 19.6477855,9.65490196 19.6477855,9.62745098 L19.6477855,8.23431373 C18.9312354,8.19313725 18.3634033,7.58921569 18.3634033,6.85490196 L18.3634033,5.38627451 C18.3634033,4.6245098 18.9785548,4 19.7289044,4 L23.2643357,4 C24.0146853,4 24.6298368,4.6245098 24.6298368,5.38627451 L24.6298368,6.85490196 C24.6298368,7.58921569 24.0620047,8.19313725 23.3454545,8.23431373 L23.3454545,9.62058824 C23.3454545,9.64803922 23.3386946,9.66862745 23.3386946,9.69607843 Z M28.1314821,17.8352873 C26.0832303,15.7558755 23.642904,15.0078363 22.3044424,14.8980324 C21.898848,14.8637186 21.5473329,15.1931304 21.5473329,15.6117578 L21.5473329,23.3597971 C21.5473329,23.8813657 22.0813655,24.2313657 22.5477315,24.0048951 L29.3414378,20.9509735 C29.6997804,20.7794049 29.8484308,20.3401892 29.6659809,19.9833265 C29.3076382,19.2627382 28.7668457,18.4803853 28.1314821,17.8352873 Z" id="path-1"></path>
    </defs>
    <g id="Icons" stroke="none" stroke-width="1" fill="none" fill-rule="evenodd">
        <g id="Bonds/Icons/Coaching/Time">
            <mask id="mask-2" fill="white">
                <use xlink:href="#path-1"></use>
            </mask>
            <g id="Combined-Shape"></g>
            <g id="Bonds/Colours/General/Attention" mask="url(#mask-2)" fill="#E2AB5B">
                <rect id="Rectangle-3" x="0" y="0" width="42" height="42"></rect>
            </g>
        </g>
    </g>
</svg>