<?xml version="1.0" encoding="UTF-8"?>
<svg width="28px" height="28px" viewBox="0 0 28 28" version="1.1" xmlns="http://www.w3.org/2000/svg" xmlns:xlink="http://www.w3.org/1999/xlink">
    <!-- Generator: Sketch 48.2 (47327) - http://www.bohemiancoding.com/sketch -->
    <title>Global/Cards/Progress/Other/Todo</title>
    <desc>Created with Sketch.</desc>
    <defs></defs>
    <g id="Global" stroke="none" stroke-width="1" fill="none" fill-rule="evenodd">
        <g id="Global/Cards/Progress/Other/Todo" fill="#8D9499" fill-rule="nonzero">
            <path d="M14,28 C6.2680135,28 0,21.7319865 0,14 C0,6.2680135 6.2680135,0 14,0 C21.7319865,0 28,6.2680135 28,14 C28,21.7319865 21.7319865,28 14,28 Z M14,26 C20.627417,26 26,20.627417 26,14 C26,7.372583 20.627417,2 14,2 C7.372583,2 2,7.372583 2,14 C2,20.627417 7.372583,26 14,26 Z M9.33333333,17.8888889 C8.47422372,17.8888889 7.77777778,17.1924429 7.77777778,16.3333333 C7.77777778,15.4742237 8.47422372,14.7777778 9.33333333,14.7777778 C10.1924429,14.7777778 10.8888889,15.4742237 10.8888889,16.3333333 C10.8888889,17.1924429 10.1924429,17.8888889 9.33333333,17.8888889 Z M14,17.8888889 C13.1408904,17.8888889 12.4444444,17.1924429 12.4444444,16.3333333 C12.4444444,15.4742237 13.1408904,14.7777778 14,14.7777778 C14.8591096,14.7777778 15.5555556,15.4742237 15.5555556,16.3333333 C15.5555556,17.1924429 14.8591096,17.8888889 14,17.8888889 Z M18.6666667,17.8888889 C17.8075571,17.8888889 17.1111111,17.1924429 17.1111111,16.3333333 C17.1111111,15.4742237 17.8075571,14.7777778 18.6666667,14.7777778 C19.5257763,14.7777778 20.2222222,15.4742237 20.2222222,16.3333333 C20.2222222,17.1924429 19.5257763,17.8888889 18.6666667,17.8888889 Z" id="Combined-Shape"></path>
        </g>
    </g>
</svg>