<?xml version="1.0" encoding="UTF-8"?>
<svg width="350px" height="350px" viewBox="0 0 350 350" version="1.1" xmlns="http://www.w3.org/2000/svg" xmlns:xlink="http://www.w3.org/1999/xlink">
    <!-- Generator: Sketch 48.2 (47327) - http://www.bohemiancoding.com/sketch -->
    <title>Bonds/Icons/Careers/Obsess/Inactive</title>
    <desc>Created with Sketch.</desc>
    <defs>
        <circle id="path-1" cx="158" cy="158" r="157.6"></circle>
        <path d="M159,317.6 C163.069153,317.6 167.119906,317.446738 171.146614,317.141751 L170.995565,315.147463 C167.019104,315.448645 163.018737,315.6 159,315.6 L159,317.6 Z M183.236563,315.759672 C187.250081,315.144198 191.229121,314.375963 195.167146,313.457436 L194.712849,311.509716 C190.824768,312.416593 186.896144,313.175095 182.933406,313.782781 L183.236563,315.759672 Z M206.910959,310.234625 C210.779014,309.010351 214.594617,307.638087 218.350571,306.121445 L217.601724,304.266929 C213.893471,305.76431 210.126347,307.119138 206.307449,308.327854 L206.910959,310.234625 Z M229.427249,301.144434 C233.057221,299.342481 236.61596,297.401803 240.096004,295.32722 L239.071896,293.609313 C235.635794,295.657701 232.12203,297.573853 228.537971,299.353014 L229.427249,301.144434 Z M250.319624,288.687468 C253.631158,286.351395 256.852584,283.889322 259.976616,281.307214 L258.702446,279.765626 C255.61763,282.315322 252.436662,284.746474 249.166745,287.053188 L250.319624,288.687468 Z M269.020266,273.234653 C271.938834,270.423104 274.749479,267.501178 277.445538,264.475735 L275.952381,263.145141 C273.290118,266.132659 270.514697,269.017966 267.632707,271.794278 L269.020266,273.234653 Z M285.19843,255.075872 C287.656505,251.852027 289.990613,248.535438 292.195059,245.133485 L290.516635,244.045876 C288.339934,247.405012 286.035181,250.679892 283.607998,253.863219 L285.19843,255.075872 Z M298.432203,234.644947 C300.368027,231.084234 302.166772,227.449683 303.823926,223.748736 L301.998559,222.931401 C300.362401,226.585459 298.586427,230.173998 296.675089,233.689672 L298.432203,234.644947 Z M308.370733,212.441241 C309.734948,208.628606 310.952785,204.761253 312.020941,200.846241 L310.091467,200.319811 C309.036886,204.185067 307.834529,208.003264 306.48765,211.767447 L308.370733,212.441241 Z M314.746157,189.105754 C315.509319,185.134309 316.121251,181.12633 316.57974,177.088151 L314.592507,176.862524 C314.139799,180.849789 313.535598,184.807134 312.782091,188.728335 L314.746157,189.105754 Z M317.490538,164.947377 C317.563457,162.969637 317.6,160.986963 317.6,159 C317.6,156.927877 317.560257,154.860422 317.480962,152.79837 L315.482439,152.875222 C315.56075,154.911671 315.6,156.953504 315.6,159 C315.6,160.962392 315.563909,162.920499 315.491896,164.873688 L317.490538,164.947377 Z M316.552429,140.672923 C316.087605,136.633474 315.469197,132.624421 314.699433,128.652116 L312.735959,129.032603 C313.495983,132.954647 314.106577,136.913046 314.565541,140.901557 L316.552429,140.672923 Z M311.927123,116.811417 C310.849836,112.89772 309.622867,109.031976 308.249537,105.221261 L306.367994,105.899343 C307.723871,109.661631 308.935245,113.478239 309.998841,117.342198 L311.927123,116.811417 Z M303.691524,93.9563803 C302.027387,90.260162 300.221892,86.6305448 298.279564,83.0749653 L296.524379,84.0337808 C298.442141,87.5443895 300.224781,91.1280607 301.867836,94.7774537 L303.691524,93.9563803 Z M292.017981,72.5938564 C289.806547,69.196381 287.465629,65.8845216 285.000935,62.6656562 L283.412984,63.8815548 C285.846703,67.0599686 288.158184,70.3301807 290.341787,73.6848993 L292.017981,72.5938564 Z M277.289246,53.3491373 C274.589098,50.3280675 271.774552,47.4106557 268.852276,44.6037522 L267.466822,46.0461524 C270.352474,48.8178778 273.131747,51.6987268 275.798049,54.6819279 L277.289246,53.3491373 Z M259.741251,36.4986291 C256.612244,33.9224728 253.386066,31.4665464 250.070009,29.1368035 L248.92027,30.7732934 C252.194649,33.0737555 255.380307,35.4988357 258.470035,38.0426526 L259.741251,36.4986291 Z M239.837208,22.5188355 C236.351343,20.4497468 232.786934,18.5148616 229.151454,16.7189938 L228.265667,18.5121426 C231.855161,20.2852936 235.37452,22.195724 238.816365,24.2386844 L239.837208,22.5188355 Z M218.004719,11.7393771 C214.245342,10.231689 210.42661,8.8684992 206.555714,7.65339911 L205.956719,9.5615933 C209.778422,10.7612513 213.548632,12.10712 217.260262,13.5956593 L218.004719,11.7393771 Z M194.944241,4.49074288 C191.00296,3.5774911 187.020792,2.81471624 183.004276,2.20488344 L182.704054,4.18222177 C186.669758,4.78433964 190.601474,5.53745058 194.492774,6.43912098 L194.944241,4.49074288 Z M170.894834,0.839378853 C166.952133,0.547019916 162.986523,0.400081068 159.003297,0.400000034 C158.875735,0.400031764 158.875735,0.400031764 158.751479,0.400190584 L158.754547,2.40018823 C158.877248,2.40003139 158.877248,2.40003139 159.003276,2.40000003 C162.937134,2.40008006 166.853425,2.54519147 170.746937,2.83390291 L170.894834,0.839378853 Z M146.601715,0.877510595 C142.547008,1.1910627 138.518656,1.65836201 134.522793,2.27742048 L134.82899,4.25384237 C138.774462,3.64259079 142.752111,3.18117307 146.755916,2.87155729 L146.601715,0.877510595 Z M122.576564,4.60256794 C118.625269,5.53115341 114.717453,6.61065867 110.860036,7.83804954 L111.466457,9.74389672 C115.27485,8.5321048 119.133006,7.46631752 123.034115,6.54952647 L122.576564,4.60256794 Z M99.4346682,11.9654587 C95.6780807,13.4887856 91.9834411,15.1558104 88.3581297,16.9623095 L89.2501242,18.7523782 C92.8295102,16.9687638 96.4773103,15.322873 100.186242,13.818871 L99.4346682,11.9654587 Z M77.6618731,22.8174111 C74.18308,24.8996458 70.7853004,27.1146419 67.4759743,29.456965 L68.6314233,31.0894287 C71.8991033,28.7765824 75.2540911,26.5894821 78.6890354,24.5334931 L77.6618731,22.8174111 Z M57.8573266,36.830227 C54.7363128,39.4169519 51.7147205,42.1220893 48.7995755,44.9391714 L50.1893924,46.3773679 C53.0679966,43.5955972 56.0517074,40.924374 59.1335794,38.3700903 L57.8573266,36.830227 Z M40.3744745,53.7265868 C37.6835381,56.7566211 35.1089571,59.8881911 32.6569321,63.1141211 L34.2491809,64.3243872 C36.6704242,61.1389542 39.212702,58.0466758 41.8698879,55.0546451 L40.3744745,53.7265868 Z M25.6572409,73.0948783 C23.4589045,76.50017 21.3916145,79.9886306 19.4604759,83.552792 L21.218946,84.5055685 C23.1256973,80.986417 25.1669031,77.5419721 27.3375253,74.1796107 L25.6572409,73.0948783 Z M14.062149,94.5063004 C12.4133442,98.2061547 10.9068385,101.970017 9.54651728,105.790595 L11.4306517,106.461443 C12.7736954,102.689391 14.2610751,98.973313 15.8889603,95.3204014 L14.062149,94.5063004 Z M5.94366949,117.283687 C4.88178053,121.188882 3.96931834,125.139397 3.2090101,129.128507 L5.17364397,129.502958 C5.92431068,125.564435 6.82519061,121.664065 7.87359353,117.808466 L5.94366949,117.283687 Z M1.39104801,141.171035 C0.941860921,145.186049 0.644517712,149.228905 0.500753668,153.293733 L2.49950396,153.364425 C2.64147475,149.350299 2.93509683,145.358038 3.37864786,141.393401 L1.39104801,141.171035 Z M0.529012569,165.455782 C0.691747413,169.52018 1.0081238,173.562121 1.47637863,177.575702 L3.46290471,177.343939 C3.00052893,173.380749 2.6881147,169.389428 2.52741136,165.375768 L0.529012569,165.455782 Z M3.34797378,189.591497 C4.12698851,193.577967 5.058127,197.525292 6.1386266,201.426716 L8.06607326,200.892909 C6.99929774,197.04104 6.07998062,193.143829 5.3108469,189.207923 L3.34797378,189.591497 Z M9.83474549,213.012031 C11.2164034,216.826998 12.7441074,220.584534 14.4139231,224.277322 L16.2362744,223.453285 C14.587641,219.807343 13.0793292,216.097503 11.7152177,212.330985 L9.83474549,213.012031 Z M19.8550556,235.170948 C21.8047805,238.725089 23.8902608,242.202882 26.106351,245.596858 L27.7809788,244.503413 C25.5928205,241.152215 23.5336476,237.718293 21.608539,234.209025 L19.8550556,235.170948 Z M33.1181988,255.489734 C35.5856352,258.703987 38.1751627,261.823307 40.8805499,264.840535 L42.3696185,263.505366 C39.6981601,260.525978 37.1411196,257.445792 34.7046544,254.271884 L33.1181988,255.489734 Z M49.3442593,273.584701 C52.2721979,276.387454 55.306009,279.077788 58.4386512,281.649267 L59.7076104,280.103388 C56.6142594,277.564162 53.6184857,274.907559 50.7272498,272.139939 L49.3442593,273.584701 Z M68.1560214,289.021705 C71.4773064,291.346519 74.8863932,293.543548 78.3758377,295.607396 L79.3939923,293.885954 C75.9485409,291.848126 72.5823977,289.678773 69.302918,287.383221 L68.1560214,289.021705 Z M89.0980034,301.403961 C92.7341034,303.192178 96.4389371,304.840455 100.205124,306.344605 L100.946917,304.487257 C97.2285157,303.002192 93.5706599,301.374815 89.9806313,299.609255 L89.0980034,301.403961 Z M111.641209,310.408275 C115.504793,311.615515 119.418146,312.674668 123.374376,313.582737 L123.821799,311.633426 C119.915812,310.73689 116.052184,309.691195 112.237701,308.499297 L111.641209,310.408275 Z M135.255819,315.834386 C139.25288,316.434473 143.281888,316.882872 147.336744,317.177624 L147.481744,315.182887 C143.477761,314.891833 139.499435,314.449075 135.552755,313.856552 L135.255819,315.834386 Z" id="path-3"></path>
        <path d="M48.3,20.7 C63.9,20.7 76.5,33.4 76.5,48.9 L96.6,48.9 C96.6,22.2 75,0.6 48.3,0.6 C21.6,0.6 0,22.2 0,48.9 C0,75.6 21.6,97.2 48.3,97.2 C57.1,97.2 65.4,94.8 72.5,90.7 L62.4,73.2 C58.3,75.6 53.4,77 48.3,77 C32.7,77 20.1,64.4 20.1,48.8 C20.1,33.3 32.8,20.7 48.3,20.7 Z" id="path-5"></path>
        <path d="M34.7,0.9 C34.7,18.8 25,34.4 10.5,42.8 L0.4,25.3 C8.8,20.4 14.5,11.3 14.5,0.9 L34.7,0.9 Z" id="path-7"></path>
        <path d="M58.8,50.4936351 L58.8,40.7 L63.8,40.7 L63.8,50.4936351 C67.701495,51.4275032 70.7724968,54.498505 71.7063649,58.4 L116.744698,58.4 C115.437324,28.9084199 91.1140049,5.4 61.3,5.4 C30.6481964,5.4 5.8,30.2481964 5.8,60.9 C5.8,91.5518036 30.6481964,116.4 61.3,116.4 C91.1140049,116.4 115.437324,92.8915801 116.744698,63.4 L71.7063649,63.4 C70.5805236,68.1035168 66.3485855,71.6 61.3,71.6 C55.3905532,71.6 50.6,66.8094468 50.6,60.9 C50.6,55.8514145 54.0964832,51.6194764 58.8,50.4936351 Z M134.15547,58.4 L141.521421,50.9431113 L145.078579,54.4568887 L138.724722,60.8891881 L145.067767,67.232233 L141.532233,70.767767 L134.164466,63.4 L131.035534,63.4 L134.867767,67.232233 L131.332233,70.767767 L123.964466,63.4 L121.749285,63.4 C120.438295,95.6539442 93.8758043,121.4 61.3,121.4 C27.8867726,121.4 0.8,94.3132274 0.8,60.9 C0.8,27.4867726 27.8867726,0.4 61.3,0.4 C93.8758043,0.4 120.438295,26.1460558 121.749284,58.3999793 L123.95547,58.4 L131.321421,50.9431113 L134.878579,54.4568887 L130.983554,58.4 L134.15547,58.4 Z M66.4239337,58.4 C65.4976716,56.505112 63.5512484,55.2 61.3,55.2 C58.1519769,55.2 55.6,57.7519769 55.6,60.9 C55.6,64.0480231 58.1519769,66.6 61.3,66.6 C63.5512484,66.6 65.4976716,65.294888 66.4239337,63.4 L61.3,63.4 L61.3,58.4 L66.4239337,58.4 Z M58.8,19.8 L63.8,19.8 L63.8,25.4 L58.8,25.4 L58.8,19.8 Z M38.6293921,26.5403473 L42.9706079,24.0596527 L45.7706079,28.9596527 L41.4293921,31.4403473 L38.6293921,26.5403473 Z M24.5072109,42.4397889 L27.0927891,38.1602111 L31.8927891,41.0602111 L29.3072109,45.3397889 L24.5072109,42.4397889 Z M20.3,63.4 L20.3,58.4 L25.9,58.4 L25.9,63.4 L20.3,63.4 Z M27.0596776,83.5594473 L24.5403224,79.2405527 L29.3403224,76.4405527 L31.8596776,80.7594473 L27.0596776,83.5594473 Z M42.9706079,97.7403473 L38.6293921,95.2596527 L41.4293921,90.3596527 L45.7706079,92.8403473 L42.9706079,97.7403473 Z M63.8,102 L58.8,102 L58.8,96.3 L63.8,96.3 L63.8,102 Z M84.0706079,95.2596527 L79.7293921,97.7403473 L76.9293921,92.8403473 L81.2706079,90.3596527 L84.0706079,95.2596527 Z M98.1403473,79.2293921 L95.6596527,83.5706079 L90.7596527,80.7706079 L93.2403473,76.4293921 L98.1403473,79.2293921 Z M95.6266978,38.1485583 L98.1733022,42.4514417 L93.2733022,45.3514417 L90.7266978,41.0485583 L95.6266978,38.1485583 Z M79.7293921,24.0596527 L84.0706079,26.5403473 L81.2706079,31.4403473 L76.9293921,28.9596527 L79.7293921,24.0596527 Z" id="path-9"></path>
    </defs>
    <g id="Icons" stroke="none" stroke-width="1" fill="none" fill-rule="evenodd">
        <g id="Bonds/Icons/Careers/Obsess/Inactive">
            <g id="Bonds/Icons/Careers/Obsess/Default">
                <g id="BG" transform="translate(11.000000, 12.000000)">
                    <g id="Circle" transform="translate(11.000000, 9.000000)">
                        <mask id="mask-2" fill="white">
                            <use xlink:href="#path-1"></use>
                        </mask>
                        <g id="Oval" fill-rule="nonzero"></g>
                        <g id="Bonds/Colours/General/White" mask="url(#mask-2)" fill="#FFFFFF">
                            <g transform="translate(-22.000000, -21.000000)" id="Rectangle-3">
                                <rect x="0" y="0" width="350" height="350"></rect>
                            </g>
                        </g>
                    </g>
                    <g id="Dashes">
                        <mask id="mask-4" fill="white">
                            <use xlink:href="#path-3"></use>
                        </mask>
                        <g id="Oval" fill-rule="nonzero"></g>
                        <g id="Bonds/Colours/General/Grey" mask="url(#mask-4)" fill="#919191">
                            <g transform="translate(-11.000000, -12.000000)" id="Rectangle-3">
                                <rect x="0" y="0" width="350" height="350"></rect>
                            </g>
                        </g>
                    </g>
                </g>
                <g id="Face" transform="translate(127.000000, 125.000000)">
                    <mask id="mask-6" fill="white">
                        <use xlink:href="#path-5"></use>
                    </mask>
                    <g id="Path"></g>
                    <g id="Bonds/Colours/General/Pale-Grey" mask="url(#mask-6)" fill="#ECECEC">
                        <g transform="translate(-127.000000, -125.000000)" id="Rectangle-3">
                            <rect x="0" y="0" width="350" height="350"></rect>
                        </g>
                    </g>
                </g>
                <g id="Fill" transform="translate(189.000000, 173.000000)">
                    <mask id="mask-8" fill="white">
                        <use xlink:href="#path-7"></use>
                    </mask>
                    <g id="Shape" fill-rule="nonzero"></g>
                    <g id="Bonds/Colours/General/Light-Grey" mask="url(#mask-8)" fill="#C4C8CB">
                        <g transform="translate(-189.000000, -173.000000)" id="Rectangle-3">
                            <rect x="0" y="0" width="350" height="350"></rect>
                        </g>
                    </g>
                </g>
                <g id="Arrow" transform="translate(114.000000, 113.000000)">
                    <mask id="mask-10" fill="white">
                        <use xlink:href="#path-9"></use>
                    </mask>
                    <g id="Oval" fill-rule="nonzero"></g>
                    <g id="Bonds/Colours/General/Grey" mask="url(#mask-10)" fill="#919191">
                        <g transform="translate(-114.000000, -113.000000)" id="Rectangle-3">
                            <rect x="0" y="0" width="350" height="350"></rect>
                        </g>
                    </g>
                </g>
            </g>
        </g>
    </g>
</svg>