<?xml version="1.0" encoding="UTF-8"?>
<svg width="108px" height="175px" viewBox="0 0 108 175" version="1.1" xmlns="http://www.w3.org/2000/svg" xmlns:xlink="http://www.w3.org/1999/xlink">
    <!-- Generator: Sketch 49.2 (51160) - http://www.bohemiancoding.com/sketch -->
    <title>icon-blueLight</title>
    <desc>Created with Sketch.</desc>
    <defs>
        <path d="M107.962386,88.306338 C107.962386,88.7504514 107.939364,98.6582725 107.893864,99.0969469 C106.801598,109.870615 92.7004447,120.137573 73.1651919,124.346779 C73.1651919,126.254753 73.1651919,140.082171 73.1651919,169.903053 C73.0155881,172.551364 71.4760217,174.875916 68.4162223,174.995578 C65.3564229,175.11524 63.7310264,172.790688 63.6694931,169.903053 C63.6694931,142.167982 63.6690882,128.842257 63.6690882,125.851857 C60.531949,126.177915 57.3002717,126.350139 53.9991497,126.350139 C50.7927434,126.350139 47.6514055,126.187276 44.5982309,125.878539 L44.631235,153.933743 C44.3283565,156.591285 42.6596471,159.026268 39.6251066,159.026268 C36.5905662,159.026268 34.9330067,156.591285 34.6524281,153.933743 L34.6524281,124.304921 C15.3908826,120.107289 1.43563321,110.018951 0.104435361,99.423001 C0.0351751721,98.9598715 0.000116297324,88.9917197 0.000116297324,88.4418373 C-0.021852909,83.8869298 3.06977876,78.9087349 8.4057823,74.7162086 C8.38490026,62.189169 8.40136973,45.3714015 8.42529975,44.8697638 C9.61747319,19.878602 29.3263536,0 53.4646956,0 C77.5950086,0 97.2988061,19.8653798 98.5028957,44.8448271 C98.5269557,45.3439641 98.5436292,60.7045079 98.5528039,73.3346699 L98.5528039,73.9182628 C104.492398,78.2610586 108,83.5659336 108,89.2266267 L107.962386,88.306338 Z M96.8426087,94.1815743 C96.8426087,90.0354818 94.4973699,86.187541 89.7603457,83.0093446 C89.7603457,77.634244 89.7667298,66.8656194 89.7603457,60.6418083 C89.7520438,52.5482788 89.7406027,44.7570501 89.7255983,44.4518196 C88.7548681,24.7044615 72.8697776,9 53.4160553,9 C33.9558599,9 18.0666716,24.7149143 17.1055481,44.4715331 C17.0913549,44.7632862 17.080417,52.0364218 17.0727712,59.8090857 C17.0683962,64.2567417 17.0683962,72.3023516 17.0727712,83.9459155 C12.8545763,87.0051897 11,90.2893643 11,94.1815743 C11,102.028548 20.2259872,108.590503 34.61408,111.782348 L34.61408,41.1726154 C34.61408,31.124485 43.3766755,22.978866 53.4163479,22.978866 L54.4262609,22.978866 C64.4659332,22.978866 73.1979159,31.124485 73.1979159,41.1726154 L73.1979159,111.865456 C87.2799236,108.623559 96.8426087,101.926306 96.8426087,94.1815743 Z" id="path-1"></path>
    </defs>
    <g id="assets" stroke="none" stroke-width="1" fill="none" fill-rule="evenodd">
        <g id="icons" transform="translate(-50.000000, -422.000000)">
            <g id="icon" transform="translate(50.000000, 422.000000)">
                <mask id="mask-2" fill="white">
                    <use xlink:href="#path-1"></use>
                </mask>
                <use id="Combined-Shape" fill="#C1DCFF" fill-rule="evenodd" xlink:href="#path-1"></use>
                <g id="blueLight" mask="url(#mask-2)" fill="#0081FB" fill-rule="evenodd">
                    <rect id="Rectangle" x="0" y="0" width="108" height="175"></rect>
                </g>
            </g>
        </g>
    </g>
</svg>