<?xml version="1.0" encoding="UTF-8"?>
<svg width="743px" height="220px" viewBox="0 0 743 220" version="1.1" xmlns="http://www.w3.org/2000/svg" xmlns:xlink="http://www.w3.org/1999/xlink">
    <!-- Generator: Sketch 49.2 (51160) - http://www.bohemiancoding.com/sketch -->
    <title>logomark</title>
    <desc>Created with Sketch.</desc>
    <defs>
        <linearGradient x1="50%" y1="8.60856525e-15%" x2="50%" y2="99.7267883%" id="linearGradient-1">
            <stop stop-color="#0081FB" offset="0%"></stop>
            <stop stop-color="#0160D9" offset="100%"></stop>
        </linearGradient>
        <circle id="path-2" cx="110" cy="110" r="110"></circle>
        <linearGradient x1="50%" y1="0%" x2="50%" y2="100%" id="linearGradient-4">
            <stop stop-color="#0081FB" offset="0%"></stop>
            <stop stop-color="#0160D9" offset="100%"></stop>
        </linearGradient>
        <path d="M107.962386,88.306338 C107.962386,88.7504514 107.939364,98.6582725 107.893864,99.0969469 C106.801598,109.870615 92.7004447,120.137573 73.1651919,124.346779 C73.1651919,126.254753 73.1651919,140.082171 73.1651919,169.903053 C73.0155881,172.551364 71.4760217,174.875916 68.4162223,174.995578 C65.3564229,175.11524 63.7310264,172.790688 63.6694931,169.903053 C63.6694931,142.167982 63.6690882,128.842257 63.6690882,125.851857 C60.531949,126.177915 57.3002717,126.350139 53.9991497,126.350139 C50.7927434,126.350139 47.6514055,126.187276 44.5982309,125.878539 L44.631235,153.933743 C44.3283565,156.591285 42.6596471,159.026268 39.6251066,159.026268 C36.5905662,159.026268 34.9330067,156.591285 34.6524281,153.933743 L34.6524281,124.304921 C15.3908826,120.107289 1.43563321,110.018951 0.104435361,99.423001 C0.0351751721,98.9598715 0.000116297324,88.9917197 0.000116297324,88.4418373 C-0.021852909,83.8869298 3.06977876,78.9087349 8.4057823,74.7162086 C8.38490026,62.189169 8.40136973,45.3714015 8.42529975,44.8697638 C9.61747319,19.878602 29.3263536,0 53.4646956,0 C77.5950086,0 97.2988061,19.8653798 98.5028957,44.8448271 C98.5269557,45.3439641 98.5436292,60.7045079 98.5528039,73.3346699 L98.5528039,73.9182628 C104.492398,78.2610586 108,83.5659336 108,89.2266267 L107.962386,88.306338 Z M96.8426087,94.1815743 C96.8426087,90.0354818 94.4973699,86.187541 89.7603457,83.0093446 C89.7603457,77.634244 89.7667298,66.8656194 89.7603457,60.6418083 C89.7520438,52.5482788 89.7406027,44.7570501 89.7255983,44.4518196 C88.7548681,24.7044615 72.8697776,9 53.4160553,9 C33.9558599,9 18.0666716,24.7149143 17.1055481,44.4715331 C17.0913549,44.7632862 17.080417,52.0364218 17.0727712,59.8090857 C17.0683962,64.2567417 17.0683962,72.3023516 17.0727712,83.9459155 C12.8545763,87.0051897 11,90.2893643 11,94.1815743 C11,102.028548 20.2259872,108.590503 34.61408,111.782348 L34.61408,41.1726154 C34.61408,31.124485 43.3766755,22.978866 53.4163479,22.978866 L54.4262609,22.978866 C64.4659332,22.978866 73.1979159,31.124485 73.1979159,41.1726154 L73.1979159,111.865456 C87.2799236,108.623559 96.8426087,101.926306 96.8426087,94.1815743 Z" id="path-5"></path>
    </defs>
    <g id="logomark" stroke="none" stroke-width="1" fill="none" fill-rule="evenodd">
        <path d="M161.963779,110.792515 C161.963779,111.229015 161.94161,120.966988 161.897795,121.398142 C160.845983,131.987119 147.267095,142.078072 128.45537,146.21512 C128.45537,148.090386 128.45537,161.680762 128.45537,190.990429 C128.311307,193.59334 126.828762,195.878043 123.882288,195.995654 C120.935815,196.113265 119.370618,193.828562 119.311364,190.990429 C119.311364,163.730817 119.310974,150.633533 119.310974,147.694397 C116.290025,148.014865 113.178039,148.184137 109.999181,148.184137 C106.911531,148.184137 103.886539,148.024066 100.946445,147.720621 L100.978226,175.294879 C100.686566,177.906863 99.0796601,180.300104 96.1575101,180.300104 C93.23536,180.300104 91.6391916,177.906863 91.3690048,175.294879 L91.3690048,146.17398 C72.8208499,142.048307 59.3824616,132.132912 58.1005674,121.718607 C58.0338724,121.263417 58.000112,111.466147 58.000112,110.925692 C57.9789565,106.448868 60.9560833,101.556014 66.094457,97.4353593 C66.0743484,85.123069 66.0902079,68.593606 66.1132516,68.1005678 C67.2612705,43.537826 86.2401923,24 109.484522,24 C132.721119,24 151.695147,43.5248305 152.85464,68.0760586 C152.877809,68.566639 152.893865,83.6638592 152.9027,96.0775042 L152.9027,96.6510926 C158.62231,100.91944 162,106.133375 162,111.697027 L161.963779,110.792515 Z M128.67287,134.24656 C143.078863,131.057779 152.910783,124.281749 152.910783,116.428749 C152.910783,112.282657 150.565544,108.434716 145.82852,105.25652 C145.82852,99.881419 145.834904,89.1127944 145.82852,82.8889833 C145.820218,74.7954538 145.808777,67.0042251 145.793772,66.6989946 C144.823042,46.9516365 128.937951,31.247175 109.484229,31.247175 C90.0240338,31.247175 74.1348455,46.9620893 73.173722,66.7187081 C73.1595287,67.0104612 73.1485909,74.2835968 73.1409451,82.0562607 C73.13657,86.5039166 73.13657,94.5495266 73.1409451,106.193091 C68.9227501,109.252365 67.0681739,112.536539 67.0681739,116.428749 C67.0681739,124.275723 76.9973632,131.054715 91.385456,134.24656 L91.3060869,63.4197904 C91.3060869,53.37166 99.4448494,45.226041 109.484522,45.226041 L110.494435,45.226041 C120.534107,45.226041 128.67287,53.37166 128.67287,63.4197904 L128.67287,130.625432 L128.67287,134.24656 Z" id="Combined-Shape" stroke="#FFFFFF" stroke-width="3" fill="#FFFFFF"></path>
        <g>
            <g id="logo">
                <g id="circle" stroke-width="1" fill-rule="evenodd">
                    <mask id="mask-3" fill="white">
                        <use xlink:href="#path-2"></use>
                    </mask>
                    <use id="Oval-4" fill="url(#linearGradient-1)" xlink:href="#path-2"></use>
                    <g id="blueGradient" mask="url(#mask-3)" fill="url(#linearGradient-4)">
                        <rect id="Rectangle" x="0" y="0" width="220" height="220"></rect>
                    </g>
                </g>
                <g id="icon" transform="translate(56.000000, 22.000000)">
                    <mask id="mask-6" fill="white">
                        <use xlink:href="#path-5"></use>
                    </mask>
                    <use id="Combined-Shape" fill="#C1DCFF" fill-rule="evenodd" xlink:href="#path-5"></use>
                    <g id="white" mask="url(#mask-6)" fill="#FFFFFF" fill-rule="evenodd">
                        <rect id="Rectangle-2" x="0" y="0" width="108" height="175"></rect>
                    </g>
                </g>
            </g>
            <text id="Framework" font-family="AvenirNext-Regular, Avenir Next" font-size="96" font-weight="normal" fill="#0161DA">
                <tspan x="260" y="136">Framework</tspan>
            </text>
        </g>
    </g>
</svg>