<?xml version="1.0" encoding="UTF-8"?>
<svg width="220px" height="220px" viewBox="0 0 220 220" version="1.1" xmlns="http://www.w3.org/2000/svg" xmlns:xlink="http://www.w3.org/1999/xlink">
    <!-- Generator: Sketch 49.2 (51160) - http://www.bohemiancoding.com/sketch -->
    <title>logo</title>
    <desc>Created with Sketch.</desc>
    <defs>
        <linearGradient x1="50%" y1="8.60856525e-15%" x2="50%" y2="99.7267883%" id="linearGradient-1">
            <stop stop-color="#0081FB" offset="0%"></stop>
            <stop stop-color="#0160D9" offset="100%"></stop>
        </linearGradient>
        <circle id="path-2" cx="110" cy="110" r="110"></circle>
        <linearGradient x1="50%" y1="0%" x2="50%" y2="100%" id="linearGradient-4">
            <stop stop-color="#0081FB" offset="0%"></stop>
            <stop stop-color="#0160D9" offset="100%"></stop>
        </linearGradient>
        <path d="M107.962386,88.306338 C107.962386,88.7504514 107.939364,98.6582725 107.893864,99.0969469 C106.801598,109.870615 92.7004447,120.137573 73.1651919,124.346779 C73.1651919,126.254753 73.1651919,140.082171 73.1651919,169.903053 C73.0155881,172.551364 71.4760217,174.875916 68.4162223,174.995578 C65.3564229,175.11524 63.7310264,172.790688 63.6694931,169.903053 C63.6694931,142.167982 63.6690882,128.842257 63.6690882,125.851857 C60.531949,126.177915 57.3002717,126.350139 53.9991497,126.350139 C50.7927434,126.350139 47.6514055,126.187276 44.5982309,125.878539 L44.631235,153.933743 C44.3283565,156.591285 42.6596471,159.026268 39.6251066,159.026268 C36.5905662,159.026268 34.9330067,156.591285 34.6524281,153.933743 L34.6524281,124.304921 C15.3908826,120.107289 1.43563321,110.018951 0.104435361,99.423001 C0.0351751721,98.9598715 0.000116297324,88.9917197 0.000116297324,88.4418373 C-0.021852909,83.8869298 3.06977876,78.9087349 8.4057823,74.7162086 C8.38490026,62.189169 8.40136973,45.3714015 8.42529975,44.8697638 C9.61747319,19.878602 29.3263536,0 53.4646956,0 C77.5950086,0 97.2988061,19.8653798 98.5028957,44.8448271 C98.5269557,45.3439641 98.5436292,60.7045079 98.5528039,73.3346699 L98.5528039,73.9182628 C104.492398,78.2610586 108,83.5659336 108,89.2266267 L107.962386,88.306338 Z M96.8426087,94.1815743 C96.8426087,90.0354818 94.4973699,86.187541 89.7603457,83.0093446 C89.7603457,77.634244 89.7667298,66.8656194 89.7603457,60.6418083 C89.7520438,52.5482788 89.7406027,44.7570501 89.7255983,44.4518196 C88.7548681,24.7044615 72.8697776,9 53.4160553,9 C33.9558599,9 18.0666716,24.7149143 17.1055481,44.4715331 C17.0913549,44.7632862 17.080417,52.0364218 17.0727712,59.8090857 C17.0683962,64.2567417 17.0683962,72.3023516 17.0727712,83.9459155 C12.8545763,87.0051897 11,90.2893643 11,94.1815743 C11,102.028548 20.2259872,108.590503 34.61408,111.782348 L34.61408,41.1726154 C34.61408,31.124485 43.3766755,22.978866 53.4163479,22.978866 L54.4262609,22.978866 C64.4659332,22.978866 73.1979159,31.124485 73.1979159,41.1726154 L73.1979159,111.865456 C87.2799236,108.623559 96.8426087,101.926306 96.8426087,94.1815743 Z" id="path-5"></path>
    </defs>
    <g id="logo" stroke="none" stroke-width="1" fill="none" fill-rule="evenodd">
        <path d="M161.963786,110.701914 C161.963786,111.137958 161.941622,120.865766 161.897816,121.29647 C160.846217,131.874393 147.270075,141.954812 128.462156,146.087542 C128.462156,147.96085 128.462156,161.53704 128.462156,190.816111 C128.318122,193.416305 126.835877,195.698623 123.889999,195.816111 C120.944122,195.933599 119.379242,193.651281 119.32,190.816111 C119.32,163.584954 119.31961,150.501342 119.31961,147.565274 C116.299272,147.885409 113.187916,148.054503 110.009701,148.054503 C106.922675,148.054503 103.898295,147.894599 100.958796,147.591471 L100.990571,175.136945 C100.698969,177.746202 99.092389,180.136945 96.1708301,180.136945 C93.2492712,180.136945 91.6534257,177.746202 91.3832935,175.136945 L91.3832935,146.046444 C72.8388909,141.925078 59.4032212,132.020034 58.1215863,121.6166 C58.0549048,121.161885 58.0211513,111.374843 58.0211513,110.834951 C58,106.362801 60.9765245,101.475054 66.1138588,97.3587015 C66.0937542,85.0592638 66.1096105,68.5470556 66.1326496,68.0545321 C67.2804362,43.5174308 86.2555186,24 109.495146,24 C132.727042,24 151.697231,43.5044489 152.85649,68.0300485 C152.879655,68.5201167 152.895707,83.6015772 152.90454,96.0022638 L152.90454,96.5752535 C158.622993,100.839146 162,106.047637 162,111.605482 L161.963786,110.701914 Z M128.679612,134.131476 C143.08269,130.946024 152.912621,124.177067 152.912621,116.332265 C152.912621,112.1905 150.567857,108.346576 145.831791,105.171697 C145.831791,99.8022078 145.838174,89.0448244 145.831791,82.8275102 C145.823491,74.7424294 145.812052,66.9593338 145.797051,66.6544219 C144.826517,46.9276777 128.94464,31.2396098 109.494853,31.2396098 C90.0385946,31.2396098 74.1526207,46.9381196 73.1916916,66.6741149 C73.1775012,66.9655634 73.1665656,74.2311067 73.1589213,81.9956569 C73.1545472,86.43867 73.1545472,94.4758812 73.1589213,106.107291 C68.9415797,109.163371 67.0873786,112.444118 67.0873786,116.332265 C67.0873786,124.171047 77.0145593,130.942963 91.3997414,134.131476 L91.3203883,63.3786408 C91.3203883,53.3409995 99.4575044,45.2038835 109.495146,45.2038835 L110.504854,45.2038835 C120.542496,45.2038835 128.679612,53.3409995 128.679612,63.3786408 L128.679612,130.514127 L128.679612,134.131476 Z" id="Combined-Shape" stroke="#FFFFFF" stroke-width="3" fill="#FFFFFF"></path>
        <g>
            <g id="circle" stroke-width="1" fill-rule="evenodd">
                <mask id="mask-3" fill="white">
                    <use xlink:href="#path-2"></use>
                </mask>
                <use id="Oval-4" fill="url(#linearGradient-1)" xlink:href="#path-2"></use>
                <g id="blueGradient" mask="url(#mask-3)" fill="url(#linearGradient-4)">
                    <rect id="Rectangle" x="0" y="0" width="220" height="220"></rect>
                </g>
            </g>
            <g id="icon" transform="translate(56.000000, 22.000000)">
                <mask id="mask-6" fill="white">
                    <use xlink:href="#path-5"></use>
                </mask>
                <use id="Combined-Shape" fill="#C1DCFF" fill-rule="evenodd" xlink:href="#path-5"></use>
                <g id="white" mask="url(#mask-6)" fill="#FFFFFF" fill-rule="evenodd">
                    <rect id="Rectangle-2" x="0" y="0" width="108" height="175"></rect>
                </g>
            </g>
        </g>
    </g>
</svg>